<svg xmlns="http://www.w3.org/2000/svg" xmlns:xlink="http://www.w3.org/1999/xlink" width="500" zoomAndPan="magnify" viewBox="0 0 375 374.999991" height="500" preserveAspectRatio="xMidYMid meet" version="1.0"><defs><g/><clipPath id="c0b75eb4d4"><path d="M 33.472656 145.699219 L 341.515625 145.699219 L 341.515625 233.449219 L 33.472656 233.449219 Z M 33.472656 145.699219 " clip-rule="nonzero"/></clipPath><clipPath id="6cb8f75dd8"><path d="M 0.441406 11 L 53 11 L 53 69 L 0.441406 69 Z M 0.441406 11 " clip-rule="nonzero"/></clipPath><clipPath id="5b74106c33"><rect x="0" width="53" y="0" height="82"/></clipPath><clipPath id="c9d6327d3f"><path d="M 0.0390625 11 L 52.839844 11 L 52.839844 69 L 0.0390625 69 Z M 0.0390625 11 " clip-rule="nonzero"/></clipPath><clipPath id="0a534bd3a7"><rect x="0" width="53" y="0" height="82"/></clipPath><clipPath id="e61b99c39b"><path d="M 0 11 L 52.558594 11 L 52.558594 69 L 0 69 Z M 0 11 " clip-rule="nonzero"/></clipPath><clipPath id="169a242c35"><rect x="0" width="53" y="0" height="82"/></clipPath><clipPath id="54db611355"><path d="M 238 173 L 260 173 L 260 218 L 238 218 Z M 238 173 " clip-rule="nonzero"/></clipPath><clipPath id="4ebf935c91"><path d="M 228.9375 179.828125 L 257.757812 169.105469 L 271.617188 206.363281 L 242.796875 217.082031 Z M 228.9375 179.828125 " clip-rule="nonzero"/></clipPath><clipPath id="85ef3690bc"><path d="M 228.9375 179.828125 L 257.757812 169.105469 L 271.617188 206.363281 L 242.796875 217.082031 Z M 228.9375 179.828125 " clip-rule="nonzero"/></clipPath><clipPath id="2c09dcb26f"><path d="M 121.566406 222.777344 L 253.433594 222.777344 L 253.433594 244.496094 L 121.566406 244.496094 Z M 121.566406 222.777344 " clip-rule="nonzero"/></clipPath><clipPath id="a73ce25dca"><path d="M 0.566406 0.777344 L 132.433594 0.777344 L 132.433594 22.496094 L 0.566406 22.496094 Z M 0.566406 0.777344 " clip-rule="nonzero"/></clipPath><clipPath id="09aed4c18a"><rect x="0" width="133" y="0" height="23"/></clipPath><clipPath id="b0e3e6fd16"><path d="M 0.398438 11 L 52.960938 11 L 52.960938 69 L 0.398438 69 Z M 0.398438 11 " clip-rule="nonzero"/></clipPath><clipPath id="a131d6c8d0"><rect x="0" width="53" y="0" height="82"/></clipPath><clipPath id="cc3067f5fe"><path d="M 0.398438 11 L 53.679688 11 L 53.679688 69 L 0.398438 69 Z M 0.398438 11 " clip-rule="nonzero"/></clipPath><clipPath id="1175ecb601"><rect x="0" width="54" y="0" height="82"/></clipPath><clipPath id="48430f3557"><path d="M 0.398438 11 L 53 11 L 53 69 L 0.398438 69 Z M 0.398438 11 " clip-rule="nonzero"/></clipPath><clipPath id="7b1cf84484"><rect x="0" width="54" y="0" height="82"/></clipPath></defs><rect x="-37.5" width="450" fill="#ffffff" y="-37.499999" height="449.999989" fill-opacity="1"/><rect x="-37.5" width="450" fill="#000000" y="-37.499999" height="449.999989" fill-opacity="1"/><g clip-path="url(#c0b75eb4d4)"><path stroke-linecap="butt" transform="matrix(0.75, 0, 0, 0.75, 33.47326, 145.699342)" fill="none" stroke-linejoin="miter" d="M -0.000805616 -0.000163843 L 410.723206 -0.000163843 L 410.723206 117.234226 L -0.000805616 117.234226 Z M -0.000805616 -0.000163843 " stroke="#ffffff" stroke-width="8" stroke-opacity="1" stroke-miterlimit="4"/></g><g transform="matrix(1, 0, 0, 1, 265, 152)"><g clip-path="url(#5b74106c33)"><g clip-path="url(#6cb8f75dd8)"><g fill="#000000" fill-opacity="1"><g transform="translate(1.917897, 65.380483)"><g><path d="M 50.511719 -13.511719 L 50.511719 -9.035156 C 50.511719 -8.632812 50.523438 -8.015625 50.550781 -7.175781 C 50.574219 -6.332031 50.617188 -5.417969 50.667969 -4.4375 C 50.722656 -3.417969 50.765625 -2.546875 50.792969 -1.828125 L 50.835938 -0.710938 L 50.835938 -0.652344 C 50.835938 0.410156 50.484375 1.292969 49.777344 1.996094 C 49.074219 2.699219 48.191406 3.054688 47.132812 3.054688 L 3.09375 3.054688 C 1.824219 3.054688 0.800781 2.632812 0.0234375 1.792969 C -0.757812 0.953125 -1.101562 -0.09375 -1.011719 -1.355469 L 2.035156 -1.140625 L -1.015625 -1.261719 C -0.855469 -5.296875 -0.757812 -9.347656 -0.734375 -13.410156 L -0.609375 -25.753906 C -0.554688 -29.824219 -0.40625 -33.917969 -0.15625 -38.035156 C 0.0742188 -41.894531 -0.09375 -45.726562 -0.660156 -49.53125 C -0.867188 -50.78125 -0.539062 -51.894531 0.324219 -52.863281 C 1.148438 -53.792969 2.179688 -54.253906 3.417969 -54.253906 L 46.804688 -54.253906 C 47.648438 -54.253906 48.394531 -54.011719 49.046875 -53.523438 C 49.664062 -53.058594 50.097656 -52.445312 50.355469 -51.679688 L 50.511719 -51.210938 L 50.511719 -50.714844 C 50.511719 -50.597656 50.496094 -50.289062 50.464844 -49.789062 C 50.433594 -49.292969 50.386719 -48.796875 50.324219 -48.300781 L 47.296875 -48.679688 L 50.347656 -48.679688 C 50.347656 -48.351562 50.320312 -47.671875 50.261719 -46.636719 C 50.210938 -45.691406 50.167969 -44.703125 50.144531 -43.675781 C 50.117188 -42.644531 50.101562 -41.871094 50.101562 -41.351562 C 50.101562 -40.878906 50.128906 -40.285156 50.175781 -39.566406 C 50.226562 -38.84375 50.289062 -38.199219 50.363281 -37.636719 L 50.511719 -36.503906 L 50.511719 -36.304688 C 50.511719 -35.175781 50.109375 -34.25 49.300781 -33.535156 C 48.601562 -32.914062 47.742188 -32.601562 46.726562 -32.601562 L 46.6875 -32.601562 L 45.058594 -32.644531 C 44.027344 -32.667969 42.710938 -32.683594 41.109375 -32.683594 L 35.9375 -32.683594 C 34.15625 -32.683594 32.511719 -32.65625 31 -32.601562 C 29.542969 -32.550781 28.425781 -32.476562 27.648438 -32.382812 C 27.148438 -32.3125 26.613281 -32.152344 26.042969 -31.894531 C 26.132812 -31.933594 26.21875 -32.015625 26.300781 -32.132812 C 26.34375 -32.191406 26.371094 -32.25 26.390625 -32.304688 L 26.398438 -32.304688 C 26.4375 -32.738281 26.3125 -33.089844 26.019531 -33.363281 C 26.203125 -33.191406 26.382812 -33.066406 26.554688 -32.988281 L 25.316406 -30.199219 L 25.914062 -33.195312 C 26.027344 -33.171875 26.71875 -33.136719 27.996094 -33.089844 C 29.394531 -33.035156 31.078125 -33.007812 33.050781 -33.007812 C 35.042969 -33.007812 37.050781 -33.023438 39.074219 -33.050781 C 41.121094 -33.078125 42.859375 -33.089844 44.28125 -33.089844 L 46.726562 -33.089844 C 47.742188 -33.089844 48.601562 -32.777344 49.300781 -32.15625 C 50.109375 -31.441406 50.511719 -30.515625 50.511719 -29.386719 L 50.511719 -19.699219 C 50.511719 -18.570312 50.109375 -17.644531 49.300781 -16.929688 C 48.601562 -16.308594 47.742188 -15.996094 46.726562 -15.996094 C 45.785156 -15.996094 44.480469 -16.007812 42.808594 -16.035156 C 41.136719 -16.0625 39.414062 -16.105469 37.636719 -16.160156 C 35.882812 -16.214844 34.308594 -16.253906 32.910156 -16.28125 C 31.519531 -16.308594 30.585938 -16.320312 30.117188 -16.320312 L 30.117188 -19.375 L 30.421875 -16.335938 C 29.777344 -16.273438 29.011719 -16.238281 28.125 -16.238281 C 27.644531 -16.238281 27.195312 -16.175781 26.785156 -16.050781 C 26.910156 -16.089844 27.007812 -16.171875 27.070312 -16.300781 C 27.035156 -16.234375 27.015625 -16.191406 27.007812 -16.171875 C 27.007812 -16.175781 27.011719 -16.183594 27.015625 -16.199219 C 27.039062 -16.296875 27.042969 -16.410156 27.03125 -16.539062 C 27 -16.863281 26.890625 -17.117188 26.699219 -17.300781 C 27.015625 -17 27.34375 -16.804688 27.683594 -16.71875 L 26.945312 -13.757812 L 27.542969 -16.75 C 27.886719 -16.679688 28.800781 -16.648438 30.28125 -16.648438 C 31.925781 -16.648438 33.800781 -16.6875 35.90625 -16.765625 L 42.085938 -17.011719 C 44.050781 -17.089844 45.546875 -17.160156 46.566406 -17.210938 L 46.644531 -17.21875 L 46.726562 -17.21875 C 47.742188 -17.21875 48.601562 -16.90625 49.300781 -16.28125 C 50.109375 -15.566406 50.511719 -14.644531 50.511719 -13.511719 Z M 44.40625 -13.511719 C 44.40625 -12.816406 44.683594 -12.21875 45.246094 -11.71875 C 45.703125 -11.3125 46.195312 -11.109375 46.726562 -11.109375 L 46.726562 -14.164062 L 46.886719 -11.117188 C 45.84375 -11.0625 44.324219 -10.992188 42.328125 -10.910156 L 36.136719 -10.664062 C 33.953125 -10.582031 32.003906 -10.542969 30.28125 -10.542969 C 28.398438 -10.542969 27.085938 -10.617188 26.34375 -10.761719 L 26.273438 -10.777344 L 26.203125 -10.796875 C 24.808594 -11.144531 23.5625 -11.84375 22.46875 -12.898438 C 21.570312 -13.761719 21.066406 -14.78125 20.953125 -15.960938 C 20.855469 -16.992188 21.074219 -18.015625 21.609375 -19.03125 C 22.324219 -20.460938 23.449219 -21.410156 24.988281 -21.882812 C 25.984375 -22.191406 27.03125 -22.34375 28.125 -22.34375 C 28.808594 -22.34375 29.375 -22.367188 29.816406 -22.410156 L 29.964844 -22.425781 L 30.117188 -22.425781 C 30.628906 -22.425781 31.597656 -22.414062 33.027344 -22.386719 C 34.449219 -22.359375 36.046875 -22.316406 37.824219 -22.261719 C 39.574219 -22.207031 41.269531 -22.167969 42.910156 -22.140625 C 44.546875 -22.113281 45.820312 -22.101562 46.726562 -22.101562 C 46.195312 -22.101562 45.703125 -21.898438 45.246094 -21.492188 C 44.683594 -20.992188 44.40625 -20.394531 44.40625 -19.699219 L 44.40625 -29.386719 C 44.40625 -28.691406 44.683594 -28.089844 45.246094 -27.59375 C 45.703125 -27.1875 46.195312 -26.984375 46.726562 -26.984375 L 44.28125 -26.984375 C 42.886719 -26.984375 41.175781 -26.972656 39.15625 -26.945312 C 37.105469 -26.917969 35.070312 -26.902344 33.050781 -26.902344 C 31.003906 -26.902344 29.242188 -26.929688 27.765625 -26.988281 C 26.164062 -27.046875 25.148438 -27.121094 24.71875 -27.207031 L 24.386719 -27.273438 L 24.078125 -27.410156 C 23.273438 -27.765625 22.53125 -28.265625 21.84375 -28.910156 C 20.683594 -29.996094 20.179688 -31.351562 20.328125 -32.980469 C 20.441406 -33.984375 20.765625 -34.871094 21.300781 -35.632812 C 21.855469 -36.429688 22.601562 -37.039062 23.53125 -37.460938 C 24.644531 -37.960938 25.765625 -38.289062 26.890625 -38.4375 C 27.851562 -38.558594 29.148438 -38.648438 30.785156 -38.707031 C 32.367188 -38.761719 34.085938 -38.789062 35.9375 -38.789062 L 41.109375 -38.789062 C 42.761719 -38.789062 44.132812 -38.773438 45.214844 -38.746094 L 46.804688 -38.707031 L 46.726562 -35.65625 L 46.726562 -38.707031 C 46.195312 -38.707031 45.703125 -38.503906 45.246094 -38.097656 C 44.683594 -37.601562 44.40625 -37.003906 44.40625 -36.304688 L 47.457031 -36.304688 L 44.429688 -35.910156 L 44.308594 -36.847656 C 44.21875 -37.53125 44.144531 -38.300781 44.085938 -39.148438 C 44.027344 -40.003906 43.996094 -40.738281 43.996094 -41.351562 C 43.996094 -41.921875 44.011719 -42.746094 44.039062 -43.832031 C 44.066406 -44.921875 44.109375 -45.96875 44.164062 -46.976562 C 44.214844 -47.894531 44.242188 -48.464844 44.242188 -48.679688 L 44.242188 -48.867188 L 44.265625 -49.058594 C 44.3125 -49.429688 44.347656 -49.800781 44.371094 -50.171875 C 44.382812 -50.382812 44.394531 -50.542969 44.398438 -50.660156 C 44.402344 -50.710938 44.40625 -50.75 44.40625 -50.777344 C 44.40625 -50.78125 44.40625 -50.785156 44.40625 -50.785156 C 44.40625 -50.765625 44.40625 -50.742188 44.40625 -50.714844 L 47.457031 -50.714844 L 44.5625 -49.75 C 44.707031 -49.308594 44.980469 -48.9375 45.382812 -48.636719 C 45.816406 -48.3125 46.289062 -48.148438 46.804688 -48.148438 L 3.417969 -48.148438 C 4.007812 -48.148438 4.496094 -48.367188 4.886719 -48.808594 C 5.316406 -49.289062 5.480469 -49.832031 5.378906 -50.429688 C 6.007812 -46.203125 6.195312 -41.949219 5.9375 -37.667969 C 5.695312 -33.644531 5.546875 -29.65625 5.496094 -25.691406 L 5.371094 -13.371094 C 5.34375 -9.238281 5.25 -5.121094 5.085938 -1.019531 L 5.082031 -0.96875 L 5.078125 -0.921875 C 5.089844 -1.066406 5.070312 -1.230469 5.023438 -1.414062 C 4.929688 -1.765625 4.753906 -2.082031 4.496094 -2.363281 C 4.234375 -2.644531 3.933594 -2.84375 3.585938 -2.960938 C 3.40625 -3.023438 3.242188 -3.054688 3.09375 -3.054688 L 47.132812 -3.054688 C 46.507812 -3.054688 45.949219 -2.808594 45.460938 -2.320312 C 44.972656 -1.832031 44.730469 -1.277344 44.730469 -0.652344 L 47.785156 -0.652344 L 44.734375 -0.535156 L 44.691406 -1.59375 C 44.664062 -2.28125 44.625 -3.121094 44.570312 -4.109375 C 44.515625 -5.136719 44.476562 -6.09375 44.445312 -6.988281 C 44.417969 -7.886719 44.40625 -8.570312 44.40625 -9.035156 Z M 44.40625 -13.511719 "/></g></g></g></g><g fill="#ffffff" fill-opacity="1"><g transform="translate(1.917897, 65.380483)"><g><path d="M 47.453125 -13.515625 C 47.453125 -12.804688 47.453125 -12.03125 47.453125 -11.1875 C 47.453125 -10.351562 47.453125 -9.632812 47.453125 -9.03125 C 47.453125 -8.601562 47.46875 -7.953125 47.5 -7.078125 C 47.53125 -6.210938 47.570312 -5.273438 47.625 -4.265625 C 47.675781 -3.265625 47.710938 -2.410156 47.734375 -1.703125 C 47.765625 -1.003906 47.78125 -0.65625 47.78125 -0.65625 C 47.78125 -0.21875 47.566406 0 47.140625 0 L 3.09375 0 C 2.332031 0 1.976562 -0.378906 2.03125 -1.140625 C 2.195312 -5.210938 2.289062 -9.296875 2.3125 -13.390625 C 2.34375 -17.484375 2.382812 -21.59375 2.4375 -25.71875 C 2.5 -29.738281 2.648438 -33.78125 2.890625 -37.84375 C 3.128906 -41.914062 2.953125 -45.960938 2.359375 -49.984375 C 2.304688 -50.304688 2.390625 -50.585938 2.609375 -50.828125 C 2.828125 -51.078125 3.097656 -51.203125 3.421875 -51.203125 L 46.8125 -51.203125 C 47.132812 -51.203125 47.347656 -51.039062 47.453125 -50.71875 C 47.453125 -50.664062 47.4375 -50.421875 47.40625 -49.984375 C 47.382812 -49.546875 47.347656 -49.113281 47.296875 -48.6875 C 47.296875 -48.414062 47.269531 -47.789062 47.21875 -46.8125 C 47.164062 -45.832031 47.125 -44.8125 47.09375 -43.75 C 47.0625 -42.695312 47.046875 -41.898438 47.046875 -41.359375 C 47.046875 -40.816406 47.070312 -40.148438 47.125 -39.359375 C 47.1875 -38.566406 47.253906 -37.859375 47.328125 -37.234375 C 47.410156 -36.617188 47.453125 -36.3125 47.453125 -36.3125 C 47.453125 -35.875 47.210938 -35.65625 46.734375 -35.65625 C 46.734375 -35.65625 46.203125 -35.664062 45.140625 -35.6875 C 44.078125 -35.71875 42.734375 -35.734375 41.109375 -35.734375 C 39.484375 -35.734375 37.757812 -35.734375 35.9375 -35.734375 C 34.125 -35.734375 32.441406 -35.707031 30.890625 -35.65625 C 29.347656 -35.601562 28.140625 -35.519531 27.265625 -35.40625 C 26.453125 -35.300781 25.625 -35.054688 24.78125 -34.671875 C 23.945312 -34.296875 23.472656 -33.617188 23.359375 -32.640625 C 23.304688 -32.046875 23.492188 -31.546875 23.921875 -31.140625 C 24.359375 -30.734375 24.820312 -30.421875 25.3125 -30.203125 C 25.582031 -30.148438 26.4375 -30.09375 27.875 -30.03125 C 29.3125 -29.976562 31.035156 -29.953125 33.046875 -29.953125 C 35.054688 -29.953125 37.078125 -29.960938 39.109375 -29.984375 C 41.148438 -30.015625 42.875 -30.03125 44.28125 -30.03125 C 45.695312 -30.03125 46.515625 -30.03125 46.734375 -30.03125 C 47.210938 -30.03125 47.453125 -29.816406 47.453125 -29.390625 L 47.453125 -22.625 C 47.453125 -22.03125 47.453125 -21.515625 47.453125 -21.078125 C 47.453125 -20.648438 47.453125 -20.191406 47.453125 -19.703125 C 47.453125 -19.265625 47.210938 -19.046875 46.734375 -19.046875 C 45.804688 -19.046875 44.515625 -19.054688 42.859375 -19.078125 C 41.203125 -19.109375 39.492188 -19.148438 37.734375 -19.203125 C 35.972656 -19.265625 34.382812 -19.304688 32.96875 -19.328125 C 31.5625 -19.359375 30.613281 -19.375 30.125 -19.375 C 29.582031 -19.320312 28.914062 -19.296875 28.125 -19.296875 C 27.34375 -19.296875 26.597656 -19.1875 25.890625 -18.96875 C 25.179688 -18.75 24.664062 -18.316406 24.34375 -17.671875 C 23.800781 -16.640625 23.878906 -15.78125 24.578125 -15.09375 C 25.285156 -14.414062 26.078125 -13.96875 26.953125 -13.75 C 27.492188 -13.644531 28.601562 -13.59375 30.28125 -13.59375 C 31.96875 -13.59375 33.878906 -13.632812 36.015625 -13.71875 C 38.160156 -13.800781 40.222656 -13.878906 42.203125 -13.953125 C 44.191406 -14.035156 45.703125 -14.109375 46.734375 -14.171875 C 47.210938 -14.171875 47.453125 -13.953125 47.453125 -13.515625 Z M 47.453125 -13.515625 "/></g></g></g></g></g><g transform="matrix(1, 0, 0, 1, 221, 153)"><g clip-path="url(#0a534bd3a7)"><g clip-path="url(#c9d6327d3f)"><g fill="#000000" fill-opacity="1"><g transform="translate(1.529458, 65.531909)"><g><path d="M 50.511719 -51.039062 C 50.511719 -48.917969 50.5625 -46.785156 50.667969 -44.636719 C 50.78125 -42.339844 50.78125 -40.054688 50.667969 -37.78125 L 50.507812 -34.640625 C 50.457031 -33.6875 50.457031 -32.71875 50.507812 -31.738281 L 50.511719 -31.660156 L 50.511719 -31.585938 C 50.511719 -30.625 50.234375 -29.800781 49.679688 -29.105469 C 49.054688 -28.324219 48.222656 -27.871094 47.183594 -27.742188 C 46.167969 -27.613281 45 -27.566406 43.683594 -27.597656 C 42.566406 -27.621094 41.519531 -27.621094 40.539062 -27.597656 C 40.175781 -27.585938 39.902344 -27.566406 39.714844 -27.53125 L 39.710938 -27.535156 C 39.839844 -27.578125 39.972656 -27.648438 40.117188 -27.742188 C 40.171875 -27.777344 40.210938 -27.808594 40.234375 -27.832031 C 40.210938 -27.808594 40.175781 -27.773438 40.132812 -27.722656 C 40.234375 -27.839844 40.308594 -27.949219 40.355469 -28.054688 C 40.363281 -28.066406 40.363281 -28.074219 40.363281 -28.074219 C 40.359375 -28.050781 40.351562 -28.027344 40.34375 -27.992188 L 37.363281 -28.652344 L 40.394531 -28.273438 C 40.351562 -27.929688 40.300781 -27.066406 40.25 -25.691406 C 40.199219 -24.265625 40.171875 -22.550781 40.171875 -20.554688 L 40.171875 -3.09375 C 40.171875 -2.480469 40.179688 -2.007812 40.191406 -1.679688 C 40.195312 -1.550781 40.199219 -1.457031 40.207031 -1.402344 C 40.195312 -1.523438 40.160156 -1.675781 40.097656 -1.859375 L 40.253906 -1.390625 L 40.253906 -0.894531 C 40.253906 0.128906 39.960938 0.996094 39.378906 1.710938 C 38.648438 2.605469 37.675781 3.054688 36.46875 3.054688 L 13.757812 3.054688 C 12.632812 3.054688 11.707031 2.648438 10.980469 1.839844 C 10.410156 1.207031 10.082031 0.425781 9.988281 -0.511719 L 9.972656 -0.660156 L 9.972656 -0.8125 C 9.972656 -1.535156 9.984375 -2.746094 10.011719 -4.445312 C 10.039062 -6.136719 10.082031 -8.046875 10.136719 -10.171875 L 10.296875 -16.480469 L 10.421875 -21.882812 C 10.445312 -23.25 10.4375 -24.078125 10.402344 -24.367188 C 10.273438 -25.332031 10.226562 -26.308594 10.257812 -27.289062 C 10.257812 -27.222656 10.269531 -27.171875 10.296875 -27.144531 L 12.453125 -29.304688 L 10.425781 -27.023438 C 10.25 -27.179688 10.074219 -27.289062 9.902344 -27.34375 C 9.554688 -27.460938 9.203125 -27.535156 8.839844 -27.566406 C 8.425781 -27.613281 7.785156 -27.636719 6.917969 -27.636719 L 3.09375 -27.636719 C 1.941406 -27.636719 1.003906 -28.039062 0.273438 -28.851562 C -0.371094 -29.566406 -0.691406 -30.449219 -0.691406 -31.503906 L -0.691406 -32.601562 C -0.691406 -33.304688 -0.707031 -34.085938 -0.730469 -34.953125 C -0.757812 -35.765625 -0.789062 -36.375 -0.835938 -36.78125 L -0.84375 -36.84375 L -0.847656 -36.902344 C -0.902344 -37.695312 -0.960938 -38.828125 -1.015625 -40.300781 C -1.070312 -41.777344 -1.097656 -43.308594 -1.097656 -44.894531 L -1.097656 -50.714844 C -1.097656 -51.277344 -0.976562 -51.800781 -0.730469 -52.292969 C -0.457031 -52.835938 -0.0664062 -53.28125 0.445312 -53.621094 C 1.078125 -54.042969 1.824219 -54.253906 2.6875 -54.253906 L 48.015625 -54.253906 L 48.742188 -53.890625 C 49.253906 -53.636719 49.664062 -53.273438 49.976562 -52.804688 C 50.332031 -52.269531 50.511719 -51.683594 50.511719 -51.039062 Z M 44.40625 -51.039062 C 44.40625 -50.449219 44.570312 -49.910156 44.898438 -49.417969 C 45.183594 -48.988281 45.554688 -48.660156 46.011719 -48.429688 L 45.929688 -48.472656 L 47.296875 -51.203125 L 47.296875 -48.148438 L 2.6875 -48.148438 C 3.058594 -48.148438 3.441406 -48.28125 3.832031 -48.539062 C 4.21875 -48.800781 4.519531 -49.140625 4.730469 -49.5625 C 4.914062 -49.929688 5.007812 -50.316406 5.007812 -50.714844 L 5.007812 -44.894531 C 5.007812 -43.386719 5.03125 -41.929688 5.085938 -40.53125 C 5.136719 -39.128906 5.191406 -38.0625 5.242188 -37.335938 L 2.199219 -37.121094 L 5.230469 -37.457031 C 5.296875 -36.886719 5.339844 -36.113281 5.371094 -35.136719 C 5.398438 -34.210938 5.414062 -33.363281 5.414062 -32.601562 L 5.414062 -31.503906 C 5.414062 -32.011719 5.214844 -32.488281 4.8125 -32.933594 C 4.328125 -33.472656 3.753906 -33.742188 3.09375 -33.742188 L 6.917969 -33.742188 C 8.007812 -33.742188 8.832031 -33.710938 9.394531 -33.648438 C 10.226562 -33.570312 11.039062 -33.402344 11.832031 -33.136719 C 12.796875 -32.816406 13.683594 -32.296875 14.484375 -31.585938 L 14.550781 -31.527344 L 14.613281 -31.464844 C 15.835938 -30.242188 16.417969 -28.785156 16.359375 -27.085938 C 16.339844 -26.441406 16.371094 -25.789062 16.460938 -25.125 C 16.53125 -24.546875 16.554688 -23.421875 16.523438 -21.746094 L 16.402344 -16.324219 L 16.238281 -10.015625 C 16.183594 -7.910156 16.144531 -6.019531 16.117188 -4.347656 C 16.089844 -2.679688 16.078125 -1.503906 16.078125 -0.8125 L 13.023438 -0.8125 L 16.0625 -1.117188 C 16.023438 -1.511719 15.839844 -1.886719 15.515625 -2.246094 C 15.03125 -2.785156 14.445312 -3.054688 13.757812 -3.054688 L 36.46875 -3.054688 C 35.75 -3.054688 35.144531 -2.753906 34.65625 -2.15625 C 34.316406 -1.742188 34.148438 -1.324219 34.148438 -0.894531 L 37.199219 -0.894531 L 34.304688 0.0703125 C 34.144531 -0.40625 34.066406 -1.460938 34.066406 -3.09375 L 34.066406 -20.554688 C 34.066406 -22.625 34.09375 -24.414062 34.148438 -25.917969 C 34.207031 -27.472656 34.269531 -28.511719 34.335938 -29.03125 L 34.351562 -29.175781 L 34.382812 -29.316406 C 34.605469 -30.320312 35.003906 -31.140625 35.570312 -31.78125 C 35.960938 -32.222656 36.347656 -32.566406 36.730469 -32.820312 C 37.542969 -33.363281 38.757812 -33.65625 40.375 -33.699219 C 41.457031 -33.726562 42.609375 -33.726562 43.824219 -33.699219 C 44.839844 -33.675781 45.707031 -33.710938 46.429688 -33.800781 C 45.824219 -33.722656 45.320312 -33.429688 44.910156 -32.921875 C 44.574219 -32.5 44.40625 -32.054688 44.40625 -31.585938 L 47.457031 -31.585938 L 44.410156 -31.433594 C 44.347656 -32.621094 44.347656 -33.796875 44.410156 -34.957031 L 44.570312 -38.085938 C 44.675781 -40.15625 44.675781 -42.238281 44.570312 -44.335938 C 44.460938 -46.582031 44.40625 -48.820312 44.40625 -51.039062 Z M 44.40625 -51.039062 "/></g></g></g></g><g fill="#ffffff" fill-opacity="1"><g transform="translate(1.529458, 65.531909)"><g><path d="M 47.453125 -51.046875 C 47.453125 -48.867188 47.503906 -46.679688 47.609375 -44.484375 C 47.722656 -42.285156 47.726562 -40.101562 47.625 -37.9375 C 47.570312 -36.90625 47.515625 -35.859375 47.453125 -34.796875 C 47.398438 -33.742188 47.398438 -32.671875 47.453125 -31.578125 C 47.453125 -31.097656 47.238281 -30.828125 46.8125 -30.765625 C 45.9375 -30.660156 44.914062 -30.617188 43.75 -30.640625 C 42.582031 -30.671875 41.484375 -30.671875 40.453125 -30.640625 C 39.421875 -30.617188 38.742188 -30.5 38.421875 -30.28125 C 38.253906 -30.175781 38.0625 -30 37.84375 -29.75 C 37.632812 -29.507812 37.472656 -29.144531 37.359375 -28.65625 C 37.304688 -28.21875 37.253906 -27.265625 37.203125 -25.796875 C 37.148438 -24.335938 37.125 -22.585938 37.125 -20.546875 C 37.125 -18.515625 37.125 -16.398438 37.125 -14.203125 C 37.125 -12.003906 37.125 -9.925781 37.125 -7.96875 C 37.125 -6.019531 37.125 -4.394531 37.125 -3.09375 C 37.125 -1.789062 37.148438 -1.054688 37.203125 -0.890625 C 37.203125 -0.296875 36.957031 0 36.46875 0 L 13.75 0 C 13.320312 0 13.082031 -0.269531 13.03125 -0.8125 C 13.03125 -1.519531 13.039062 -2.710938 13.0625 -4.390625 C 13.09375 -6.078125 13.132812 -7.976562 13.1875 -10.09375 C 13.238281 -12.207031 13.289062 -14.304688 13.34375 -16.390625 C 13.40625 -18.484375 13.445312 -20.289062 13.46875 -21.8125 C 13.5 -23.332031 13.488281 -24.3125 13.4375 -24.75 C 13.320312 -25.5625 13.273438 -26.375 13.296875 -27.1875 C 13.328125 -28 13.046875 -28.707031 12.453125 -29.3125 C 11.960938 -29.738281 11.429688 -30.046875 10.859375 -30.234375 C 10.296875 -30.429688 9.71875 -30.554688 9.125 -30.609375 C 8.632812 -30.660156 7.898438 -30.6875 6.921875 -30.6875 C 5.941406 -30.6875 5.054688 -30.6875 4.265625 -30.6875 C 3.484375 -30.6875 3.09375 -30.6875 3.09375 -30.6875 C 2.601562 -30.6875 2.359375 -30.957031 2.359375 -31.5 C 2.359375 -31.5 2.359375 -31.863281 2.359375 -32.59375 C 2.359375 -33.332031 2.34375 -34.148438 2.3125 -35.046875 C 2.289062 -35.941406 2.253906 -36.632812 2.203125 -37.125 C 2.140625 -37.882812 2.082031 -38.984375 2.03125 -40.421875 C 1.976562 -41.859375 1.953125 -43.347656 1.953125 -44.890625 C 1.953125 -46.441406 1.953125 -47.769531 1.953125 -48.875 C 1.953125 -49.988281 1.953125 -50.601562 1.953125 -50.71875 C 1.953125 -51.039062 2.195312 -51.203125 2.6875 -51.203125 L 47.296875 -51.203125 C 47.296875 -51.203125 47.320312 -51.1875 47.375 -51.15625 C 47.425781 -51.132812 47.453125 -51.097656 47.453125 -51.046875 Z M 47.453125 -51.046875 "/></g></g></g></g></g><g transform="matrix(1, 0, 0, 1, 186, 153)"><g clip-path="url(#169a242c35)"><g clip-path="url(#e61b99c39b)"><g fill="#000000" fill-opacity="1"><g transform="translate(2.078181, 65.531909)"><g><path d="M 27.105469 -54.253906 L 46.886719 -54.253906 C 47.507812 -54.253906 48.074219 -54.101562 48.589844 -53.789062 C 49.269531 -53.382812 49.734375 -52.800781 49.988281 -52.046875 C 50.230469 -51.320312 50.214844 -50.554688 49.945312 -49.75 L 47.050781 -50.714844 L 50.011719 -49.972656 C 49.949219 -49.726562 49.738281 -48.964844 49.378906 -47.6875 C 49.03125 -46.453125 48.613281 -44.921875 48.128906 -43.09375 C 47.632812 -41.222656 47.097656 -39.308594 46.519531 -37.351562 C 45.933594 -35.371094 45.359375 -33.59375 44.796875 -32.023438 C 43.960938 -29.628906 43.082031 -27.375 42.152344 -25.265625 C 41.246094 -23.210938 40.476562 -21.503906 39.84375 -20.152344 C 39.550781 -19.535156 39.332031 -19.039062 39.179688 -18.675781 C 39.121094 -18.523438 39.074219 -18.40625 39.042969 -18.320312 C 39.039062 -18.300781 39.035156 -18.292969 39.035156 -18.292969 C 39.050781 -18.34375 39.0625 -18.398438 39.074219 -18.464844 C 38.929688 -17.699219 38.847656 -17.074219 38.828125 -16.59375 C 38.800781 -16.015625 38.789062 -15.3125 38.789062 -14.488281 C 38.789062 -13.40625 38.761719 -12.308594 38.703125 -11.199219 L 38.539062 -8.0625 C 38.488281 -6.804688 38.449219 -5.519531 38.421875 -4.210938 C 38.398438 -2.988281 38.433594 -1.777344 38.535156 -0.578125 L 38.542969 -0.453125 L 38.542969 -0.324219 C 38.542969 0.460938 38.320312 1.152344 37.871094 1.75 C 37.535156 2.199219 37.109375 2.539062 36.59375 2.769531 C 36.167969 2.957031 35.71875 3.054688 35.246094 3.054688 L 11.886719 3.054688 C 11.242188 3.054688 10.652344 2.875 10.121094 2.519531 C 9.648438 2.207031 9.289062 1.792969 9.03125 1.285156 C 8.789062 0.800781 8.667969 0.261719 8.667969 -0.324219 L 8.667969 -2.035156 C 8.667969 -3.085938 8.683594 -4.351562 8.710938 -5.835938 L 8.792969 -10.3125 L 8.875 -14.347656 C 8.898438 -15.496094 8.914062 -16.25 8.914062 -16.605469 C 8.914062 -17.007812 8.902344 -17.324219 8.882812 -17.558594 C 8.878906 -17.628906 8.871094 -17.679688 8.867188 -17.707031 C 8.878906 -17.648438 8.898438 -17.570312 8.933594 -17.476562 C 8.808594 -17.816406 8.605469 -18.445312 8.320312 -19.359375 L 8.296875 -19.429688 C 8.230469 -19.671875 7.832031 -20.609375 7.101562 -22.242188 C 6.273438 -24.09375 5.355469 -26.535156 4.347656 -29.5625 L 4.332031 -29.605469 L 2.449219 -35.921875 C 1.785156 -38.125 1.191406 -40.234375 0.667969 -42.253906 L -0.671875 -47.328125 C -1.046875 -48.714844 -1.285156 -49.589844 -1.386719 -49.957031 L -1.421875 -50.074219 L -1.445312 -50.195312 C -1.628906 -51.105469 -1.496094 -51.929688 -1.050781 -52.671875 C -0.703125 -53.25 -0.222656 -53.675781 0.390625 -53.957031 C 0.828125 -54.15625 1.296875 -54.253906 1.789062 -54.253906 L 21.328125 -54.253906 C 21.800781 -54.253906 22.25 -54.160156 22.675781 -53.972656 C 23.1875 -53.742188 23.613281 -53.402344 23.953125 -52.953125 C 24.402344 -52.355469 24.625 -51.664062 24.625 -50.875 L 21.570312 -50.875 L 24.621094 -51.03125 C 24.726562 -48.96875 24.886719 -46.902344 25.097656 -44.839844 C 25.3125 -42.746094 25.550781 -40.65625 25.820312 -38.566406 L 22.792969 -38.179688 L 25.808594 -38.640625 C 25.757812 -38.988281 25.566406 -39.316406 25.234375 -39.621094 C 24.839844 -39.988281 24.40625 -40.171875 23.933594 -40.171875 C 23.332031 -40.171875 22.824219 -39.960938 22.40625 -39.542969 C 22.222656 -39.363281 22.113281 -39.207031 22.074219 -39.074219 C 22.242188 -39.664062 22.410156 -40.542969 22.582031 -41.710938 C 22.765625 -42.984375 22.9375 -44.300781 23.097656 -45.65625 C 23.261719 -47.050781 23.414062 -48.28125 23.550781 -49.351562 C 23.695312 -50.480469 23.800781 -51.214844 23.871094 -51.558594 L 23.90625 -51.742188 L 23.964844 -51.921875 C 24.144531 -52.460938 24.425781 -52.917969 24.804688 -53.300781 C 25.441406 -53.9375 26.210938 -54.253906 27.105469 -54.253906 Z M 27.105469 -48.148438 C 27.894531 -48.148438 28.566406 -48.425781 29.125 -48.984375 C 29.421875 -49.28125 29.632812 -49.617188 29.757812 -49.992188 L 26.863281 -50.957031 L 29.855469 -50.359375 C 29.816406 -50.15625 29.734375 -49.5625 29.605469 -48.574219 C 29.472656 -47.527344 29.324219 -46.316406 29.160156 -44.945312 C 28.996094 -43.53125 28.816406 -42.160156 28.621094 -40.832031 C 28.414062 -39.394531 28.175781 -38.210938 27.910156 -37.28125 C 27.652344 -36.445312 27.253906 -35.757812 26.722656 -35.226562 C 25.949219 -34.453125 25.019531 -34.066406 23.933594 -34.066406 C 22.808594 -34.066406 21.855469 -34.425781 21.082031 -35.148438 C 20.371094 -35.804688 19.9375 -36.660156 19.777344 -37.714844 L 19.769531 -37.75 L 19.765625 -37.789062 C 19.488281 -39.933594 19.242188 -42.074219 19.023438 -44.214844 C 18.800781 -46.382812 18.632812 -48.550781 18.523438 -50.71875 L 18.519531 -50.796875 L 18.519531 -50.875 C 18.519531 -50.308594 18.703125 -49.777344 19.070312 -49.289062 C 19.367188 -48.894531 19.742188 -48.59375 20.195312 -48.390625 C 20.558594 -48.230469 20.9375 -48.148438 21.328125 -48.148438 L 1.789062 -48.148438 C 2.175781 -48.148438 2.550781 -48.230469 2.917969 -48.398438 C 3.457031 -48.644531 3.878906 -49.019531 4.183594 -49.53125 C 4.550781 -50.136719 4.667969 -50.757812 4.539062 -51.394531 L 1.546875 -50.796875 L 4.480469 -51.632812 C 4.59375 -51.238281 4.84375 -50.324219 5.230469 -48.886719 L 6.578125 -43.789062 C 7.082031 -41.847656 7.65625 -39.804688 8.296875 -37.667969 L 10.167969 -31.398438 L 7.246094 -30.527344 L 10.140625 -31.492188 C 11.085938 -28.65625 11.933594 -26.402344 12.679688 -24.726562 C 13.523438 -22.832031 14.019531 -21.625 14.167969 -21.109375 L 11.234375 -20.269531 L 14.148438 -21.179688 C 14.40625 -20.355469 14.578125 -19.816406 14.671875 -19.5625 C 14.902344 -18.925781 15.019531 -17.941406 15.019531 -16.605469 C 15.019531 -16.203125 15.003906 -15.410156 14.976562 -14.222656 L 14.894531 -10.203125 L 14.816406 -5.722656 C 14.789062 -4.277344 14.773438 -3.046875 14.773438 -2.035156 L 14.773438 -0.324219 C 14.773438 -0.699219 14.679688 -1.070312 14.492188 -1.445312 C 14.265625 -1.902344 13.9375 -2.273438 13.507812 -2.558594 C 13.015625 -2.886719 12.472656 -3.054688 11.886719 -3.054688 L 35.246094 -3.054688 C 34.855469 -3.054688 34.476562 -2.972656 34.113281 -2.808594 C 33.660156 -2.609375 33.285156 -2.308594 32.988281 -1.914062 C 32.621094 -1.425781 32.4375 -0.894531 32.4375 -0.324219 L 35.492188 -0.324219 L 32.449219 -0.0703125 C 32.332031 -1.480469 32.289062 -2.902344 32.316406 -4.335938 C 32.34375 -5.6875 32.386719 -7.035156 32.441406 -8.378906 L 32.605469 -11.511719 C 32.65625 -12.519531 32.683594 -13.511719 32.683594 -14.488281 C 32.683594 -15.402344 32.699219 -16.191406 32.726562 -16.859375 C 32.761719 -17.628906 32.867188 -18.5 33.050781 -19.46875 C 33.152344 -20.070312 33.570312 -21.164062 34.316406 -22.746094 C 34.929688 -24.054688 35.679688 -25.714844 36.5625 -27.726562 C 37.425781 -29.6875 38.253906 -31.804688 39.046875 -34.078125 C 39.570312 -35.542969 40.109375 -37.210938 40.664062 -39.085938 C 41.226562 -40.984375 41.746094 -42.839844 42.226562 -44.65625 C 42.71875 -46.519531 43.144531 -48.082031 43.503906 -49.347656 C 43.847656 -50.566406 44.042969 -51.265625 44.089844 -51.453125 L 44.117188 -51.566406 L 44.15625 -51.679688 C 43.996094 -51.199219 44.007812 -50.675781 44.195312 -50.113281 C 44.417969 -49.441406 44.839844 -48.921875 45.449219 -48.554688 C 45.898438 -48.285156 46.378906 -48.148438 46.886719 -48.148438 Z M 27.105469 -48.148438 "/></g></g></g></g><g fill="#ffffff" fill-opacity="1"><g transform="translate(2.078181, 65.531909)"><g><path d="M 27.109375 -51.203125 L 46.890625 -51.203125 C 47.109375 -51.203125 47.160156 -51.039062 47.046875 -50.71875 C 46.992188 -50.5 46.789062 -49.765625 46.4375 -48.515625 C 46.082031 -47.265625 45.660156 -45.71875 45.171875 -43.875 C 44.691406 -42.03125 44.164062 -40.144531 43.59375 -38.21875 C 43.019531 -36.289062 42.460938 -34.566406 41.921875 -33.046875 C 41.109375 -30.710938 40.253906 -28.523438 39.359375 -26.484375 C 38.460938 -24.453125 37.703125 -22.769531 37.078125 -21.4375 C 36.453125 -20.113281 36.113281 -19.289062 36.0625 -18.96875 C 35.894531 -18.101562 35.796875 -17.359375 35.765625 -16.734375 C 35.742188 -16.109375 35.734375 -15.359375 35.734375 -14.484375 C 35.734375 -13.453125 35.707031 -12.40625 35.65625 -11.34375 C 35.601562 -10.289062 35.550781 -9.25 35.5 -8.21875 C 35.4375 -6.914062 35.390625 -5.597656 35.359375 -4.265625 C 35.335938 -2.941406 35.382812 -1.628906 35.5 -0.328125 C 35.5 -0.109375 35.414062 0 35.25 0 L 11.890625 0 C 11.773438 0 11.71875 -0.109375 11.71875 -0.328125 C 11.71875 -0.429688 11.71875 -1 11.71875 -2.03125 C 11.71875 -3.0625 11.726562 -4.3125 11.75 -5.78125 C 11.78125 -7.25 11.8125 -8.738281 11.84375 -10.25 C 11.875 -11.769531 11.898438 -13.113281 11.921875 -14.28125 C 11.953125 -15.445312 11.96875 -16.222656 11.96875 -16.609375 C 11.96875 -17.585938 11.910156 -18.222656 11.796875 -18.515625 C 11.691406 -18.816406 11.503906 -19.398438 11.234375 -20.265625 C 11.128906 -20.648438 10.679688 -21.722656 9.890625 -23.484375 C 9.097656 -25.242188 8.21875 -27.59375 7.25 -30.53125 C 6.644531 -32.539062 6.015625 -34.628906 5.359375 -36.796875 C 4.710938 -38.960938 4.128906 -41.035156 3.609375 -43.015625 C 3.097656 -45.003906 2.648438 -46.703125 2.265625 -48.109375 C 1.890625 -49.523438 1.648438 -50.421875 1.546875 -50.796875 C 1.492188 -51.066406 1.578125 -51.203125 1.796875 -51.203125 L 21.328125 -51.203125 C 21.492188 -51.203125 21.578125 -51.09375 21.578125 -50.875 C 21.679688 -48.757812 21.84375 -46.644531 22.0625 -44.53125 C 22.28125 -42.414062 22.523438 -40.296875 22.796875 -38.171875 C 22.898438 -37.472656 23.28125 -37.125 23.9375 -37.125 C 24.425781 -37.125 24.773438 -37.472656 24.984375 -38.171875 C 25.203125 -38.929688 25.40625 -39.960938 25.59375 -41.265625 C 25.789062 -42.578125 25.96875 -43.921875 26.125 -45.296875 C 26.289062 -46.679688 26.441406 -47.898438 26.578125 -48.953125 C 26.710938 -50.015625 26.804688 -50.679688 26.859375 -50.953125 C 26.921875 -51.117188 27.003906 -51.203125 27.109375 -51.203125 Z M 27.109375 -51.203125 "/></g></g></g></g></g><g clip-path="url(#54db611355)"><g clip-path="url(#4ebf935c91)"><g clip-path="url(#85ef3690bc)"><path fill="#000000" d="M 244.679688 173.972656 L 238.691406 196.207031 L 245.734375 195.96875 L 242.792969 217.070312 L 257.394531 189.25 L 250.742188 189.40625 L 259.449219 173.785156 Z M 244.679688 173.972656 " fill-opacity="1" fill-rule="nonzero"/></g></g></g><g clip-path="url(#2c09dcb26f)"><g transform="matrix(1, 0, 0, 1, 121, 222)"><g clip-path="url(#09aed4c18a)"><g clip-path="url(#a73ce25dca)"><path fill="#000000" d="M 0.566406 0.777344 L 132.402344 0.777344 L 132.402344 22.496094 L 0.566406 22.496094 Z M 0.566406 0.777344 " fill-opacity="1" fill-rule="nonzero"/></g></g></g></g><g transform="matrix(1, 0, 0, 1, 146, 152)"><g clip-path="url(#a131d6c8d0)"><g clip-path="url(#b0e3e6fd16)"><g fill="#000000" fill-opacity="1"><g transform="translate(1.780097, 65.380483)"><g><path d="M 50.835938 -16.6875 L 50.835938 -11.316406 C 50.835938 -9.21875 50.398438 -7.375 49.523438 -5.777344 C 48.816406 -4.484375 48.1875 -3.496094 47.644531 -2.8125 C 46.648438 -1.535156 45.507812 -0.535156 44.226562 0.183594 C 43.402344 0.644531 42.84375 0.976562 42.558594 1.183594 L 42.429688 1.269531 L 42.296875 1.347656 C 40.765625 2.222656 39.125 2.734375 37.375 2.878906 C 35.984375 2.996094 35.0625 3.054688 34.597656 3.054688 L 2.6875 3.054688 C 1.546875 3.054688 0.625 2.652344 -0.078125 1.847656 C -0.773438 1.050781 -1.054688 0.09375 -0.914062 -1.03125 C -0.8125 -1.78125 -0.710938 -3.097656 -0.605469 -4.972656 C -0.5 -6.882812 -0.433594 -8.992188 -0.40625 -11.308594 L -0.324219 -17.988281 C -0.300781 -20.011719 -0.3125 -21.539062 -0.363281 -22.558594 C -0.417969 -23.609375 -0.472656 -25.152344 -0.527344 -27.1875 C -0.582031 -29.210938 -0.625 -31.3125 -0.652344 -33.5 L -0.734375 -39.355469 C -0.761719 -41.105469 -0.773438 -42.257812 -0.773438 -42.816406 C -0.773438 -43.601562 -0.757812 -44.601562 -0.730469 -45.816406 C -0.707031 -46.988281 -0.691406 -48.050781 -0.691406 -49.003906 L -0.691406 -50.632812 C -0.691406 -51.664062 -0.347656 -52.527344 0.34375 -53.21875 C 1.035156 -53.910156 1.898438 -54.253906 2.929688 -54.253906 L 34.839844 -54.253906 C 36.222656 -54.253906 37.734375 -54.101562 39.386719 -53.796875 C 41.292969 -53.441406 42.8125 -52.863281 43.941406 -52.058594 L 42.167969 -49.574219 L 43.859375 -52.113281 C 44.632812 -51.597656 45.464844 -50.941406 46.363281 -50.136719 C 47.503906 -49.113281 48.433594 -47.703125 49.152344 -45.90625 C 49.839844 -44.183594 50.183594 -41.933594 50.183594 -39.15625 C 50.183594 -36.863281 49.847656 -34.984375 49.171875 -33.519531 C 48.609375 -32.304688 47.980469 -31.191406 47.285156 -30.179688 L 47.214844 -30.078125 C 46.34375 -28.917969 45.375 -27.992188 44.304688 -27.308594 C 43.480469 -26.777344 42.679688 -26.300781 41.90625 -25.882812 L 41.800781 -25.828125 L 41.695312 -25.78125 L 41.6875 -25.785156 C 41.777344 -25.855469 41.859375 -25.949219 41.9375 -26.066406 C 42.25 -26.535156 42.394531 -27.054688 42.371094 -27.632812 C 42.351562 -28.136719 42.203125 -28.589844 41.929688 -28.988281 C 41.808594 -29.160156 41.683594 -29.296875 41.554688 -29.398438 C 41.539062 -29.410156 41.527344 -29.417969 41.519531 -29.421875 C 41.535156 -29.414062 41.554688 -29.402344 41.578125 -29.386719 L 41.625 -29.363281 L 41.667969 -29.335938 C 42.085938 -29.09375 42.566406 -28.902344 43.117188 -28.753906 C 44.429688 -28.402344 45.789062 -27.5625 47.195312 -26.230469 L 47.261719 -26.167969 L 47.320312 -26.105469 C 48.449219 -24.90625 49.316406 -23.558594 49.921875 -22.066406 C 50.53125 -20.558594 50.835938 -18.765625 50.835938 -16.6875 Z M 44.730469 -16.6875 C 44.730469 -17.972656 44.574219 -19.003906 44.261719 -19.773438 C 43.945312 -20.5625 43.480469 -21.277344 42.875 -21.921875 L 45.097656 -24.015625 L 42.996094 -21.796875 C 42.34375 -22.417969 41.855469 -22.769531 41.542969 -22.855469 C 40.464844 -23.140625 39.480469 -23.546875 38.59375 -24.0625 L 40.132812 -26.699219 L 38.683594 -24.011719 C 37.902344 -24.433594 37.308594 -24.933594 36.910156 -25.511719 C 36.511719 -26.085938 36.300781 -26.710938 36.273438 -27.386719 C 36.242188 -28.132812 36.4375 -28.820312 36.859375 -29.453125 C 37.402344 -30.269531 38.191406 -30.90625 39.21875 -31.363281 L 40.457031 -28.574219 L 39.011719 -31.261719 C 39.644531 -31.601562 40.3125 -31.996094 41.003906 -32.441406 C 41.457031 -32.734375 41.898438 -33.167969 42.328125 -33.742188 L 44.769531 -31.910156 L 42.253906 -33.640625 C 42.753906 -34.363281 43.210938 -35.179688 43.628906 -36.078125 C 43.929688 -36.730469 44.078125 -37.757812 44.078125 -39.15625 C 44.078125 -41.152344 43.878906 -42.644531 43.484375 -43.636719 C 43.117188 -44.550781 42.71875 -45.203125 42.285156 -45.589844 C 41.609375 -46.199219 41.003906 -46.679688 40.472656 -47.035156 L 40.433594 -47.0625 L 40.390625 -47.089844 C 40 -47.371094 39.292969 -47.605469 38.273438 -47.792969 C 36.992188 -48.03125 35.847656 -48.148438 34.839844 -48.148438 L 2.929688 -48.148438 C 3.582031 -48.148438 4.160156 -48.398438 4.660156 -48.902344 C 5.164062 -49.402344 5.414062 -49.980469 5.414062 -50.632812 L 5.414062 -49.003906 C 5.414062 -48.003906 5.398438 -46.894531 5.371094 -45.679688 C 5.34375 -44.507812 5.332031 -43.554688 5.332031 -42.816406 C 5.332031 -42.289062 5.34375 -41.164062 5.371094 -39.441406 L 5.453125 -33.574219 C 5.480469 -31.421875 5.519531 -29.34375 5.574219 -27.351562 C 5.628906 -25.371094 5.683594 -23.875 5.734375 -22.863281 C 5.792969 -21.714844 5.808594 -20.0625 5.78125 -17.910156 L 5.699219 -11.238281 C 5.671875 -8.832031 5.601562 -6.632812 5.488281 -4.632812 C 5.378906 -2.601562 5.261719 -1.148438 5.144531 -0.273438 C 5.230469 -0.960938 5.023438 -1.59375 4.515625 -2.171875 C 4.003906 -2.757812 3.394531 -3.054688 2.6875 -3.054688 L 34.597656 -3.054688 C 34.890625 -3.054688 35.648438 -3.105469 36.867188 -3.203125 C 37.71875 -3.277344 38.519531 -3.527344 39.269531 -3.953125 L 40.78125 -1.300781 L 39.007812 -3.785156 C 39.480469 -4.125 40.226562 -4.578125 41.246094 -5.148438 C 41.808594 -5.460938 42.351562 -5.957031 42.875 -6.628906 C 43.199219 -7.03125 43.628906 -7.726562 44.167969 -8.710938 C 44.542969 -9.394531 44.730469 -10.261719 44.730469 -11.316406 Z M 23.09375 -10.941406 C 23.238281 -11.125 23.304688 -11.300781 23.292969 -11.46875 C 23.203125 -12.53125 23.160156 -13.5625 23.160156 -14.570312 L 26.210938 -14.570312 L 23.164062 -14.402344 C 23.113281 -15.339844 23.03125 -16.355469 22.929688 -17.457031 C 22.917969 -17.582031 22.855469 -17.679688 22.746094 -17.746094 L 22.625 -17.820312 L 22.507812 -17.910156 C 22.824219 -17.671875 23.191406 -17.601562 23.617188 -17.695312 L 23.289062 -17.625 L 22.957031 -17.625 C 23.21875 -17.625 23.488281 -17.679688 23.757812 -17.792969 C 24.125 -17.953125 24.4375 -18.1875 24.683594 -18.503906 C 24.96875 -18.867188 25.113281 -19.210938 25.113281 -19.535156 L 22.058594 -19.535156 L 25.101562 -19.789062 C 25.167969 -19.007812 25.171875 -17.964844 25.109375 -16.667969 L 24.945312 -13.089844 C 24.898438 -11.976562 24.898438 -11.007812 24.945312 -10.191406 C 24.957031 -9.96875 24.972656 -9.835938 24.984375 -9.789062 C 24.949219 -9.910156 24.886719 -10.039062 24.800781 -10.179688 C 24.597656 -10.511719 24.3125 -10.789062 23.957031 -11.003906 L 24.136719 -10.886719 C 24.035156 -10.957031 23.894531 -11.007812 23.722656 -11.039062 C 23.5 -11.074219 23.289062 -11.0625 23.089844 -10.996094 C 23.132812 -11.011719 23.164062 -11.027344 23.179688 -11.046875 L 25.480469 -9.035156 Z M 27.863281 -7.128906 L 27.820312 -7.074219 L 27.777344 -7.027344 C 27.03125 -6.175781 26.113281 -5.566406 25.019531 -5.203125 C 23.476562 -4.691406 22.015625 -4.917969 20.636719 -5.882812 L 22.386719 -8.382812 L 20.816406 -5.765625 C 20.003906 -6.253906 19.445312 -7.011719 19.136719 -8.035156 C 18.988281 -8.535156 18.890625 -9.132812 18.851562 -9.832031 C 18.789062 -10.859375 18.789062 -12.039062 18.847656 -13.367188 L 19.011719 -16.953125 C 19.058594 -17.984375 19.0625 -18.761719 19.019531 -19.28125 L 19.007812 -19.410156 L 19.007812 -19.535156 C 19.007812 -20.621094 19.300781 -21.535156 19.882812 -22.277344 C 20.644531 -23.246094 21.667969 -23.730469 22.957031 -23.730469 L 22.957031 -20.675781 L 22.292969 -23.65625 C 23.695312 -23.96875 24.988281 -23.679688 26.171875 -22.792969 L 24.339844 -20.351562 L 25.929688 -22.957031 C 27.777344 -21.828125 28.800781 -20.1875 29.007812 -18.035156 C 29.117188 -16.855469 29.203125 -15.757812 29.257812 -14.742188 L 29.265625 -14.65625 L 29.265625 -14.570312 C 29.265625 -13.734375 29.300781 -12.867188 29.375 -11.976562 C 29.523438 -10.191406 29.019531 -8.574219 27.863281 -7.128906 Z M 23.226562 -32.960938 C 23.3125 -32.996094 23.375 -33.027344 23.421875 -33.058594 L 23.421875 -33.054688 C 23.410156 -33.039062 23.402344 -33.03125 23.398438 -33.023438 C 23.410156 -33.046875 23.421875 -33.09375 23.425781 -33.152344 C 23.574219 -34.296875 23.648438 -35.324219 23.648438 -36.222656 L 26.699219 -36.222656 L 23.652344 -36.0625 C 23.597656 -37.0625 23.53125 -38.035156 23.453125 -38.984375 C 23.429688 -39.292969 23.257812 -39.628906 22.9375 -39.992188 L 25.234375 -42.003906 L 22.984375 -39.941406 C 23.136719 -39.777344 23.367188 -39.664062 23.679688 -39.601562 C 24.023438 -39.53125 24.320312 -39.558594 24.566406 -39.679688 L 23.199219 -42.410156 L 24.683594 -39.742188 C 24.886719 -39.855469 25.0625 -40.03125 25.21875 -40.273438 C 25.417969 -40.585938 25.519531 -40.917969 25.519531 -41.269531 L 22.46875 -41.269531 L 25.519531 -41.355469 C 25.574219 -39.320312 25.5625 -37.5 25.476562 -35.898438 L 25.191406 -30.683594 L 22.140625 -30.851562 L 25.195312 -30.851562 C 25.195312 -31.445312 24.980469 -31.972656 24.546875 -32.425781 C 24.242188 -32.75 23.90625 -32.949219 23.542969 -33.023438 C 23.480469 -33.039062 23.386719 -33.023438 23.265625 -32.976562 Z M 25.410156 -27.261719 C 24.421875 -26.890625 23.382812 -26.820312 22.285156 -27.050781 C 21.410156 -27.234375 20.6875 -27.625 20.121094 -28.21875 C 19.433594 -28.945312 19.089844 -29.820312 19.089844 -30.851562 L 19.089844 -30.933594 L 19.378906 -36.226562 C 19.453125 -37.660156 19.46875 -39.316406 19.414062 -41.1875 L 19.414062 -41.269531 C 19.414062 -42.113281 19.636719 -42.878906 20.082031 -43.574219 C 20.480469 -44.191406 21.027344 -44.695312 21.71875 -45.078125 L 21.773438 -45.113281 L 21.835938 -45.140625 C 22.839844 -45.644531 23.851562 -45.792969 24.878906 -45.585938 C 25.867188 -45.390625 26.738281 -44.882812 27.484375 -44.066406 L 27.507812 -44.039062 L 27.53125 -44.015625 C 28.734375 -42.640625 29.402344 -41.132812 29.539062 -39.488281 C 29.621094 -38.480469 29.691406 -37.445312 29.75 -36.382812 L 29.753906 -36.304688 L 29.753906 -36.222656 C 29.753906 -35.0625 29.664062 -33.78125 29.484375 -32.378906 C 29.332031 -31.171875 28.898438 -30.128906 28.1875 -29.238281 C 27.496094 -28.375 26.582031 -27.71875 25.453125 -27.277344 Z M 25.410156 -27.261719 "/></g></g></g></g><g fill="#ffffff" fill-opacity="1"><g transform="translate(1.780097, 65.380483)"><g><path d="M 47.78125 -16.6875 L 47.78125 -11.3125 C 47.78125 -9.738281 47.46875 -8.378906 46.84375 -7.234375 C 46.21875 -6.097656 45.691406 -5.257812 45.265625 -4.71875 C 44.503906 -3.738281 43.660156 -2.988281 42.734375 -2.46875 C 41.816406 -1.957031 41.164062 -1.566406 40.78125 -1.296875 C 39.644531 -0.648438 38.425781 -0.269531 37.125 -0.15625 C 35.820312 -0.0507812 34.976562 0 34.59375 0 L 2.6875 0 C 2.25 0 2.054688 -0.21875 2.109375 -0.65625 C 2.222656 -1.46875 2.332031 -2.847656 2.4375 -4.796875 C 2.550781 -6.753906 2.617188 -8.910156 2.640625 -11.265625 C 2.671875 -13.628906 2.695312 -15.851562 2.71875 -17.9375 C 2.75 -20.03125 2.738281 -21.625 2.6875 -22.71875 C 2.632812 -23.75 2.578125 -25.265625 2.515625 -27.265625 C 2.460938 -29.273438 2.421875 -31.363281 2.390625 -33.53125 C 2.367188 -35.707031 2.34375 -37.660156 2.3125 -39.390625 C 2.289062 -41.128906 2.28125 -42.269531 2.28125 -42.8125 C 2.28125 -43.570312 2.289062 -44.550781 2.3125 -45.75 C 2.34375 -46.945312 2.359375 -48.03125 2.359375 -49 C 2.359375 -49.976562 2.359375 -50.523438 2.359375 -50.640625 C 2.359375 -51.015625 2.550781 -51.203125 2.9375 -51.203125 L 34.84375 -51.203125 C 36.039062 -51.203125 37.367188 -51.066406 38.828125 -50.796875 C 40.296875 -50.523438 41.410156 -50.117188 42.171875 -49.578125 C 42.816406 -49.140625 43.53125 -48.566406 44.3125 -47.859375 C 45.101562 -47.160156 45.769531 -46.128906 46.3125 -44.765625 C 46.863281 -43.410156 47.140625 -41.539062 47.140625 -39.15625 C 47.140625 -37.3125 46.894531 -35.859375 46.40625 -34.796875 C 45.914062 -33.742188 45.375 -32.78125 44.78125 -31.90625 C 44.125 -31.039062 43.414062 -30.363281 42.65625 -29.875 C 41.894531 -29.382812 41.160156 -28.953125 40.453125 -28.578125 C 39.960938 -28.359375 39.609375 -28.082031 39.390625 -27.75 C 39.179688 -27.425781 39.429688 -27.078125 40.140625 -26.703125 C 40.785156 -26.316406 41.515625 -26.015625 42.328125 -25.796875 C 43.140625 -25.585938 44.0625 -24.992188 45.09375 -24.015625 C 45.96875 -23.085938 46.632812 -22.054688 47.09375 -20.921875 C 47.550781 -19.785156 47.78125 -18.375 47.78125 -16.6875 Z M 25.484375 -9.03125 C 26.128906 -9.84375 26.410156 -10.738281 26.328125 -11.71875 C 26.253906 -12.695312 26.21875 -13.648438 26.21875 -14.578125 C 26.15625 -15.546875 26.070312 -16.597656 25.96875 -17.734375 C 25.863281 -18.878906 25.320312 -19.753906 24.34375 -20.359375 C 23.90625 -20.679688 23.441406 -20.785156 22.953125 -20.671875 C 22.359375 -20.671875 22.0625 -20.289062 22.0625 -19.53125 C 22.113281 -18.882812 22.113281 -17.976562 22.0625 -16.8125 C 22.007812 -15.644531 21.953125 -14.445312 21.890625 -13.21875 C 21.835938 -12 21.835938 -10.925781 21.890625 -10 C 21.953125 -9.082031 22.117188 -8.546875 22.390625 -8.390625 C 22.929688 -8.003906 23.484375 -7.90625 24.046875 -8.09375 C 24.617188 -8.289062 25.097656 -8.601562 25.484375 -9.03125 Z M 24.34375 -30.125 C 25.59375 -30.613281 26.296875 -31.492188 26.453125 -32.765625 C 26.617188 -34.035156 26.703125 -35.1875 26.703125 -36.21875 C 26.648438 -37.25 26.582031 -38.253906 26.5 -39.234375 C 26.414062 -40.210938 25.992188 -41.132812 25.234375 -42 C 24.640625 -42.65625 23.960938 -42.789062 23.203125 -42.40625 C 22.710938 -42.132812 22.46875 -41.753906 22.46875 -41.265625 C 22.519531 -39.316406 22.503906 -37.582031 22.421875 -36.0625 C 22.347656 -34.539062 22.253906 -32.804688 22.140625 -30.859375 C 22.140625 -30.421875 22.394531 -30.144531 22.90625 -30.03125 C 23.425781 -29.925781 23.90625 -29.957031 24.34375 -30.125 Z M 24.34375 -30.125 "/></g></g></g></g></g><g transform="matrix(1, 0, 0, 1, 104, 152)"><g clip-path="url(#1175ecb601)"><g clip-path="url(#cc3067f5fe)"><g fill="#000000" fill-opacity="1"><g transform="translate(1.736858, 65.380483)"><g><path d="M 47.828125 -16.480469 C 48.15625 -15.050781 48.5 -13.5 48.855469 -11.828125 C 49.214844 -10.15625 49.542969 -8.535156 49.84375 -6.96875 C 50.140625 -5.433594 50.394531 -4.144531 50.609375 -3.097656 C 50.820312 -2.082031 50.945312 -1.484375 50.988281 -1.308594 L 48.027344 -0.570312 L 50.960938 -1.410156 C 51.214844 -0.523438 51.179688 0.300781 50.855469 1.058594 C 50.554688 1.761719 50.070312 2.292969 49.398438 2.652344 C 48.902344 2.917969 48.363281 3.054688 47.785156 3.054688 L 27.351562 3.054688 C 26.878906 3.054688 26.429688 2.957031 26.003906 2.769531 C 25.488281 2.539062 25.0625 2.199219 24.726562 1.75 C 24.277344 1.152344 24.054688 0.460938 24.054688 -0.324219 L 27.105469 -0.324219 L 24.25 0.746094 C 24.039062 0.183594 23.769531 -0.8125 23.441406 -2.25 C 23.144531 -3.539062 22.808594 -4.964844 22.429688 -6.527344 C 22.054688 -8.078125 21.710938 -9.453125 21.390625 -10.652344 C 21.082031 -11.8125 20.882812 -12.523438 20.792969 -12.792969 C 20.703125 -13.054688 20.605469 -13.25 20.496094 -13.375 C 20.585938 -13.273438 20.703125 -13.175781 20.847656 -13.078125 C 21.191406 -12.855469 21.578125 -12.726562 22.011719 -12.6875 C 22.574219 -12.640625 23.097656 -12.761719 23.582031 -13.046875 C 23.878906 -13.222656 24.117188 -13.4375 24.300781 -13.691406 L 24.152344 -13.488281 L 23.972656 -13.308594 C 24.292969 -13.625 24.507812 -13.972656 24.625 -14.351562 C 24.636719 -14.394531 24.648438 -14.429688 24.652344 -14.457031 C 24.652344 -14.449219 24.648438 -14.433594 24.644531 -14.414062 C 24.613281 -14.191406 24.59375 -13.839844 24.582031 -13.363281 L 24.5 -9.539062 C 24.472656 -8.121094 24.429688 -7.054688 24.371094 -6.339844 L 24.367188 -6.296875 L 24.363281 -6.257812 C 24.257812 -5.339844 24.183594 -4.382812 24.132812 -3.382812 C 24.082031 -2.378906 24.054688 -1.386719 24.054688 -0.40625 C 24.054688 0.292969 23.890625 0.917969 23.558594 1.46875 C 23.257812 1.96875 22.855469 2.363281 22.347656 2.644531 C 21.855469 2.917969 21.324219 3.054688 20.757812 3.054688 L 2.441406 3.054688 C 1.355469 3.054688 0.480469 2.636719 -0.1875 1.804688 C -0.6875 1.179688 -0.9375 0.441406 -0.9375 -0.40625 L -0.9375 -0.445312 L -0.894531 -2.035156 L -0.8125 -5.644531 L -0.730469 -9.425781 C -0.707031 -10.546875 -0.691406 -11.230469 -0.691406 -11.476562 L -0.691406 -33.210938 C -0.636719 -36.132812 -0.652344 -39.035156 -0.730469 -41.917969 C -0.8125 -44.878906 -0.855469 -47.835938 -0.855469 -50.796875 C -0.855469 -51.644531 -0.605469 -52.382812 -0.105469 -53.007812 C 0.5625 -53.839844 1.4375 -54.253906 2.523438 -54.253906 L 21.816406 -54.253906 C 22.351562 -54.253906 22.851562 -54.136719 23.324219 -53.902344 C 23.847656 -53.640625 24.273438 -53.265625 24.601562 -52.773438 C 24.996094 -52.179688 25.195312 -51.492188 25.195312 -50.714844 L 25.195312 -50.339844 L 25.101562 -49.972656 C 25.097656 -49.953125 25.074219 -49.460938 25.027344 -48.496094 C 24.972656 -47.316406 24.90625 -46.039062 24.824219 -44.671875 C 24.746094 -43.375 24.707031 -42.351562 24.707031 -41.597656 L 21.652344 -41.597656 L 24.699219 -41.777344 C 24.757812 -40.820312 24.800781 -39.8125 24.828125 -38.746094 C 24.828125 -38.65625 24.832031 -38.605469 24.835938 -38.585938 C 24.804688 -38.75 24.730469 -38.929688 24.613281 -39.125 C 24.308594 -39.640625 23.859375 -40.007812 23.269531 -40.222656 C 22.695312 -40.429688 22.132812 -40.445312 21.582031 -40.261719 L 21.695312 -40.296875 L 21.808594 -40.324219 C 21.585938 -40.269531 21.390625 -40.171875 21.21875 -40.035156 C 21.132812 -39.964844 21.074219 -39.902344 21.042969 -39.851562 C 21.203125 -40.113281 21.328125 -40.390625 21.414062 -40.683594 L 24.339844 -39.804688 L 21.347656 -40.40625 C 21.421875 -40.78125 21.625 -41.5 21.957031 -42.554688 L 22.972656 -45.804688 L 24.074219 -49.308594 C 24.414062 -50.386719 24.660156 -51.203125 24.8125 -51.761719 L 24.945312 -52.238281 L 25.21875 -52.652344 C 25.464844 -53.023438 25.757812 -53.332031 26.089844 -53.582031 C 26.6875 -54.03125 27.351562 -54.253906 28.082031 -54.253906 L 47.703125 -54.253906 C 48.359375 -54.253906 48.957031 -54.074219 49.503906 -53.710938 C 49.980469 -53.390625 50.355469 -52.96875 50.617188 -52.445312 C 50.871094 -51.933594 51 -51.355469 51 -50.714844 L 51 -50.628906 L 50.996094 -50.542969 C 50.929688 -49.371094 50.558594 -47.464844 49.886719 -44.828125 C 49.253906 -42.359375 48.554688 -39.78125 47.789062 -37.09375 L 45.539062 -29.570312 C 44.914062 -27.46875 44.582031 -26.261719 44.550781 -25.957031 L 44.527344 -25.792969 C 44.558594 -25.988281 44.566406 -26.164062 44.550781 -26.316406 C 44.546875 -26.332031 44.546875 -26.339844 44.546875 -26.34375 C 44.550781 -26.328125 44.554688 -26.304688 44.5625 -26.277344 C 44.613281 -26.0625 44.710938 -25.765625 44.859375 -25.378906 L 46.246094 -21.664062 C 46.832031 -20.085938 47.351562 -18.378906 47.816406 -16.53125 Z M 41.890625 -15.050781 C 41.484375 -16.679688 41.03125 -18.171875 40.527344 -19.527344 L 39.148438 -23.21875 C 38.574219 -24.734375 38.359375 -25.929688 38.503906 -26.796875 L 41.515625 -26.292969 L 38.480469 -26.628906 C 38.554688 -27.300781 38.957031 -28.863281 39.6875 -31.320312 L 41.917969 -38.773438 C 42.667969 -41.402344 43.355469 -43.925781 43.972656 -46.339844 C 44.546875 -48.589844 44.855469 -50.105469 44.898438 -50.882812 L 47.945312 -50.714844 L 44.894531 -50.714844 C 44.894531 -50.394531 44.980469 -50.0625 45.15625 -49.714844 C 45.375 -49.273438 45.695312 -48.910156 46.117188 -48.632812 C 46.597656 -48.308594 47.125 -48.148438 47.703125 -48.148438 L 28.082031 -48.148438 C 28.707031 -48.148438 29.265625 -48.332031 29.753906 -48.699219 C 29.976562 -48.867188 30.160156 -49.054688 30.296875 -49.265625 L 27.757812 -50.957031 L 30.703125 -50.15625 C 30.53125 -49.519531 30.261719 -48.625 29.898438 -47.480469 L 28.800781 -43.984375 L 27.78125 -40.722656 C 27.515625 -39.875 27.367188 -39.371094 27.332031 -39.207031 L 27.304688 -39.066406 L 27.261719 -38.929688 C 27.023438 -38.132812 26.6875 -37.378906 26.253906 -36.667969 C 25.519531 -35.46875 24.53125 -34.710938 23.289062 -34.402344 L 22.546875 -37.363281 L 23.515625 -34.46875 C 22.71875 -34.203125 21.941406 -34.207031 21.183594 -34.484375 C 20.40625 -34.765625 19.800781 -35.273438 19.363281 -36.007812 C 18.964844 -36.679688 18.75 -37.539062 18.722656 -38.585938 C 18.695312 -39.585938 18.65625 -40.527344 18.605469 -41.417969 L 18.601562 -41.507812 L 18.601562 -41.597656 C 18.601562 -42.472656 18.644531 -43.617188 18.726562 -45.035156 C 18.808594 -46.378906 18.875 -47.625 18.929688 -48.78125 C 18.992188 -50.148438 19.078125 -51.039062 19.179688 -51.453125 L 22.140625 -50.714844 L 19.089844 -50.714844 C 19.089844 -50.261719 19.234375 -49.816406 19.519531 -49.386719 C 19.792969 -48.976562 20.152344 -48.664062 20.59375 -48.441406 C 20.980469 -48.246094 21.390625 -48.148438 21.816406 -48.148438 L 2.523438 -48.148438 C 3.394531 -48.148438 4.105469 -48.496094 4.664062 -49.195312 C 5.054688 -49.683594 5.25 -50.21875 5.25 -50.796875 C 5.25 -47.894531 5.289062 -44.992188 5.371094 -42.089844 C 5.453125 -39.109375 5.46875 -36.152344 5.414062 -33.210938 L 5.414062 -11.476562 C 5.414062 -11.183594 5.398438 -10.453125 5.371094 -9.296875 L 5.289062 -5.507812 L 5.207031 -1.875 L 5.167969 -0.328125 L 2.117188 -0.40625 L 5.167969 -0.40625 C 5.167969 -0.984375 4.972656 -1.519531 4.582031 -2.007812 C 4.023438 -2.703125 3.3125 -3.054688 2.441406 -3.054688 L 20.757812 -3.054688 C 20.269531 -3.054688 19.8125 -2.933594 19.382812 -2.695312 C 18.9375 -2.445312 18.582031 -2.105469 18.324219 -1.671875 C 18.074219 -1.257812 17.949219 -0.835938 17.949219 -0.40625 C 17.949219 -1.492188 17.976562 -2.585938 18.035156 -3.699219 C 18.09375 -4.816406 18.179688 -5.894531 18.292969 -6.929688 L 21.328125 -6.59375 L 18.285156 -6.847656 C 18.335938 -7.433594 18.371094 -8.375 18.398438 -9.671875 L 18.480469 -13.5 C 18.496094 -14.214844 18.535156 -14.800781 18.597656 -15.257812 C 18.742188 -16.273438 19.09375 -17.0625 19.65625 -17.625 L 21.816406 -15.464844 L 19.332031 -17.242188 C 19.648438 -17.6875 20.03125 -18.039062 20.476562 -18.304688 C 21.109375 -18.675781 21.789062 -18.832031 22.515625 -18.773438 C 23.5 -18.691406 24.359375 -18.230469 25.089844 -17.394531 C 25.738281 -16.652344 26.238281 -15.761719 26.585938 -14.722656 C 26.710938 -14.335938 26.949219 -13.503906 27.289062 -12.222656 C 27.621094 -10.980469 27.980469 -9.558594 28.363281 -7.960938 C 28.746094 -6.375 29.089844 -4.925781 29.390625 -3.613281 C 29.660156 -2.441406 29.851562 -1.703125 29.964844 -1.398438 L 30.160156 -0.878906 L 30.160156 -0.324219 C 30.160156 -0.894531 29.976562 -1.425781 29.609375 -1.914062 C 29.3125 -2.308594 28.9375 -2.609375 28.484375 -2.808594 C 28.121094 -2.972656 27.742188 -3.054688 27.351562 -3.054688 L 47.785156 -3.054688 C 47.339844 -3.054688 46.910156 -2.941406 46.503906 -2.722656 C 45.921875 -2.410156 45.5 -1.949219 45.242188 -1.34375 C 44.996094 -0.773438 44.949219 -0.238281 45.09375 0.269531 L 45.078125 0.21875 L 45.066406 0.171875 C 45 -0.0898438 44.855469 -0.769531 44.628906 -1.871094 C 44.410156 -2.9375 44.152344 -4.253906 43.851562 -5.8125 C 43.554688 -7.339844 43.234375 -8.921875 42.882812 -10.554688 C 42.535156 -12.195312 42.199219 -13.710938 41.878906 -15.105469 Z M 41.890625 -15.050781 "/></g></g></g></g><g fill="#ffffff" fill-opacity="1"><g transform="translate(1.736858, 65.380483)"><g><path d="M 44.859375 -15.796875 C 45.179688 -14.378906 45.519531 -12.84375 45.875 -11.1875 C 46.226562 -9.53125 46.550781 -7.929688 46.84375 -6.390625 C 47.144531 -4.847656 47.40625 -3.546875 47.625 -2.484375 C 47.84375 -1.421875 47.976562 -0.78125 48.03125 -0.5625 C 48.132812 -0.1875 48.050781 0 47.78125 0 L 27.359375 0 C 27.191406 0 27.109375 -0.109375 27.109375 -0.328125 C 26.941406 -0.765625 26.707031 -1.632812 26.40625 -2.9375 C 26.113281 -4.238281 25.773438 -5.675781 25.390625 -7.25 C 25.015625 -8.820312 24.664062 -10.21875 24.34375 -11.4375 C 24.019531 -12.65625 23.800781 -13.425781 23.6875 -13.75 C 23.46875 -14.40625 23.164062 -14.945312 22.78125 -15.375 C 22.40625 -15.8125 22.082031 -15.84375 21.8125 -15.46875 C 21.65625 -15.300781 21.5625 -14.617188 21.53125 -13.421875 C 21.5 -12.234375 21.46875 -10.960938 21.4375 -9.609375 C 21.414062 -8.253906 21.378906 -7.25 21.328125 -6.59375 C 21.222656 -5.613281 21.140625 -4.59375 21.078125 -3.53125 C 21.023438 -2.476562 21 -1.4375 21 -0.40625 C 21 -0.132812 20.921875 0 20.765625 0 L 2.4375 0 C 2.21875 0 2.109375 -0.132812 2.109375 -0.40625 C 2.109375 -0.40625 2.125 -0.921875 2.15625 -1.953125 C 2.1875 -2.984375 2.210938 -4.191406 2.234375 -5.578125 C 2.265625 -6.960938 2.289062 -8.222656 2.3125 -9.359375 C 2.34375 -10.503906 2.359375 -11.210938 2.359375 -11.484375 L 2.359375 -33.21875 C 2.410156 -36.144531 2.394531 -39.070312 2.3125 -42 C 2.238281 -44.9375 2.203125 -47.867188 2.203125 -50.796875 C 2.203125 -51.066406 2.3125 -51.203125 2.53125 -51.203125 L 21.8125 -51.203125 C 22.03125 -51.203125 22.140625 -51.039062 22.140625 -50.71875 C 22.085938 -50.5 22.03125 -49.804688 21.96875 -48.640625 C 21.914062 -47.472656 21.847656 -46.207031 21.765625 -44.84375 C 21.691406 -43.488281 21.65625 -42.40625 21.65625 -41.59375 C 21.707031 -40.675781 21.742188 -39.703125 21.765625 -38.671875 C 21.796875 -37.640625 22.054688 -37.203125 22.546875 -37.359375 C 22.984375 -37.472656 23.347656 -37.773438 23.640625 -38.265625 C 23.941406 -38.753906 24.175781 -39.269531 24.34375 -39.8125 C 24.394531 -40.082031 24.566406 -40.691406 24.859375 -41.640625 C 25.160156 -42.585938 25.5 -43.671875 25.875 -44.890625 C 26.257812 -46.117188 26.628906 -47.285156 26.984375 -48.390625 C 27.335938 -49.503906 27.597656 -50.359375 27.765625 -50.953125 C 27.867188 -51.117188 27.972656 -51.203125 28.078125 -51.203125 L 47.703125 -51.203125 C 47.867188 -51.203125 47.953125 -51.039062 47.953125 -50.71875 C 47.890625 -49.738281 47.546875 -48.023438 46.921875 -45.578125 C 46.304688 -43.140625 45.617188 -40.59375 44.859375 -37.9375 C 44.046875 -35.21875 43.296875 -32.71875 42.609375 -30.4375 C 41.929688 -28.164062 41.566406 -26.785156 41.515625 -26.296875 C 41.460938 -25.972656 41.625 -25.304688 42 -24.296875 C 42.382812 -23.296875 42.847656 -22.0625 43.390625 -20.59375 C 43.929688 -19.125 44.421875 -17.523438 44.859375 -15.796875 Z M 44.859375 -15.796875 "/></g></g></g></g></g><g transform="matrix(1, 0, 0, 1, 62, 152)"><g clip-path="url(#7b1cf84484)"><g clip-path="url(#48430f3557)"><g fill="#000000" fill-opacity="1"><g transform="translate(1.693626, 65.380483)"><g><path d="M 46.117188 -16.914062 C 46.671875 -15.800781 47.21875 -14.429688 47.753906 -12.792969 C 48.257812 -11.261719 48.730469 -9.699219 49.175781 -8.109375 C 49.617188 -6.542969 49.988281 -5.160156 50.292969 -3.972656 C 50.617188 -2.699219 50.816406 -1.816406 50.886719 -1.328125 L 47.863281 -0.894531 L 50.867188 -1.441406 C 51.050781 -0.4375 50.929688 0.457031 50.503906 1.238281 C 50.15625 1.871094 49.660156 2.351562 49.015625 2.675781 C 48.511719 2.925781 47.964844 3.054688 47.375 3.054688 L 29.222656 3.054688 C 28.160156 3.054688 27.292969 2.644531 26.613281 1.832031 C 26.191406 1.328125 25.921875 0.71875 25.804688 0.0117188 L 28.816406 -0.488281 L 25.882812 0.351562 C 25.785156 0.0195312 25.558594 -0.675781 25.195312 -1.742188 C 24.828125 -2.8125 24.394531 -3.996094 23.894531 -5.285156 C 23.394531 -6.578125 22.921875 -7.730469 22.476562 -8.753906 C 22.132812 -9.542969 21.917969 -9.992188 21.832031 -10.09375 L 24.175781 -12.046875 L 22.019531 -9.890625 C 22.316406 -9.589844 22.683594 -9.394531 23.121094 -9.308594 C 23.480469 -9.238281 23.816406 -9.25 24.125 -9.355469 C 24.484375 -9.476562 24.792969 -9.695312 25.054688 -10.015625 C 25.304688 -10.324219 25.453125 -10.660156 25.496094 -11.019531 L 22.46875 -11.394531 L 25.511719 -11.199219 C 25.410156 -9.566406 25.34375 -7.867188 25.316406 -6.101562 C 25.289062 -4.328125 25.304688 -2.597656 25.355469 -0.910156 L 22.304688 -0.8125 L 25.34375 -1.117188 C 25.4375 -0.175781 25.269531 0.652344 24.839844 1.367188 C 24.496094 1.941406 24.023438 2.378906 23.425781 2.679688 C 22.929688 2.929688 22.390625 3.054688 21.816406 3.054688 L 2.769531 3.054688 C 2.207031 3.054688 1.679688 2.929688 1.1875 2.683594 C 0.644531 2.414062 0.203125 2.019531 -0.140625 1.511719 C -0.5625 0.875 -0.773438 0.128906 -0.773438 -0.734375 L -0.773438 -7.652344 C -0.773438 -7.949219 -0.757812 -8.675781 -0.730469 -9.839844 C -0.707031 -10.957031 -0.691406 -12.289062 -0.691406 -13.839844 L -0.691406 -18.558594 C -0.691406 -20.109375 -0.707031 -21.441406 -0.730469 -22.558594 C -0.757812 -23.722656 -0.773438 -24.449219 -0.773438 -24.746094 L -0.773438 -34.839844 L -0.609375 -42.839844 C -0.554688 -45.484375 -0.554688 -48.113281 -0.609375 -50.734375 C -0.609375 -51.472656 -0.445312 -52.121094 -0.113281 -52.671875 C 0.1875 -53.171875 0.589844 -53.5625 1.097656 -53.84375 C 1.589844 -54.117188 2.117188 -54.253906 2.6875 -54.253906 L 37.199219 -54.253906 C 38.589844 -54.253906 39.972656 -53.921875 41.34375 -53.257812 C 42.503906 -52.691406 43.609375 -51.984375 44.660156 -51.128906 L 44.710938 -51.089844 L 44.757812 -51.050781 C 45.914062 -50.027344 46.882812 -48.871094 47.667969 -47.574219 C 48.335938 -46.472656 48.820312 -45.613281 49.128906 -44.996094 L 49.167969 -44.921875 L 49.199219 -44.84375 C 50.035156 -42.921875 50.546875 -40.960938 50.742188 -38.960938 C 50.914062 -37.179688 51 -35.15625 51 -32.886719 C 51 -31.273438 50.851562 -29.460938 50.558594 -27.441406 C 50.25 -25.292969 49.820312 -23.601562 49.269531 -22.367188 L 46.480469 -23.605469 L 49.300781 -22.433594 C 48.96875 -21.644531 48.523438 -20.78125 47.960938 -19.839844 C 47.457031 -19 47.007812 -18.273438 46.613281 -17.652344 C 46.113281 -16.867188 45.757812 -16.371094 45.546875 -16.15625 L 44.652344 -15.261719 L 43.304688 -15.261719 L 43.304688 -18.316406 L 45.464844 -16.15625 C 45.601562 -16.292969 45.707031 -16.472656 45.785156 -16.695312 C 45.890625 -16.988281 45.917969 -17.285156 45.863281 -17.585938 C 45.894531 -17.414062 45.980469 -17.191406 46.117188 -16.914062 Z M 40.65625 -14.183594 C 40.253906 -14.988281 39.984375 -15.769531 39.851562 -16.523438 C 39.71875 -17.28125 39.777344 -18.019531 40.03125 -18.734375 C 40.261719 -19.378906 40.632812 -19.960938 41.148438 -20.472656 L 42.042969 -21.367188 L 43.386719 -21.367188 L 43.386719 -18.316406 L 41.230469 -20.472656 C 41.125 -20.367188 41.039062 -20.269531 40.976562 -20.179688 C 40.988281 -20.203125 41.015625 -20.238281 41.050781 -20.292969 C 41.148438 -20.4375 41.285156 -20.652344 41.464844 -20.929688 C 41.828125 -21.503906 42.25 -22.1875 42.722656 -22.980469 C 43.136719 -23.667969 43.449219 -24.265625 43.664062 -24.78125 L 43.675781 -24.8125 L 43.691406 -24.847656 C 44.011719 -25.566406 44.285156 -26.722656 44.519531 -28.316406 C 44.769531 -30.046875 44.894531 -31.566406 44.894531 -32.886719 C 44.894531 -34.960938 44.816406 -36.789062 44.664062 -38.371094 C 44.53125 -39.734375 44.175781 -41.085938 43.597656 -42.417969 L 46.398438 -43.632812 L 43.667969 -42.265625 C 43.433594 -42.734375 43.027344 -43.449219 42.445312 -44.410156 C 41.980469 -45.175781 41.40625 -45.863281 40.714844 -46.472656 L 42.738281 -48.761719 L 40.8125 -46.390625 C 40.125 -46.949219 39.414062 -47.40625 38.675781 -47.765625 C 38.148438 -48.019531 37.65625 -48.148438 37.199219 -48.148438 L 2.6875 -48.148438 C 3.171875 -48.148438 3.632812 -48.269531 4.0625 -48.507812 C 4.507812 -48.757812 4.859375 -49.097656 5.121094 -49.53125 C 5.371094 -49.945312 5.496094 -50.386719 5.496094 -50.859375 C 5.550781 -48.15625 5.550781 -45.441406 5.496094 -42.714844 L 5.332031 -34.839844 L 5.332031 -24.746094 C 5.332031 -24.5 5.34375 -23.816406 5.371094 -22.703125 C 5.398438 -21.539062 5.414062 -20.15625 5.414062 -18.558594 L 5.414062 -13.839844 C 5.414062 -12.242188 5.398438 -10.859375 5.371094 -9.695312 C 5.34375 -8.582031 5.332031 -7.898438 5.332031 -7.652344 L 5.332031 -0.734375 C 5.332031 -1.105469 5.203125 -1.484375 4.941406 -1.875 C 4.683594 -2.265625 4.339844 -2.566406 3.917969 -2.777344 C 3.550781 -2.960938 3.167969 -3.054688 2.769531 -3.054688 L 21.816406 -3.054688 C 21.429688 -3.054688 21.058594 -2.960938 20.695312 -2.78125 C 20.234375 -2.550781 19.871094 -2.214844 19.605469 -1.773438 C 19.339844 -1.332031 19.226562 -0.910156 19.265625 -0.511719 L 19.257812 -0.613281 L 19.253906 -0.71875 C 19.199219 -2.503906 19.183594 -4.328125 19.210938 -6.191406 C 19.238281 -8.058594 19.308594 -9.859375 19.421875 -11.59375 L 19.425781 -11.683594 L 19.4375 -11.773438 C 19.539062 -12.570312 19.828125 -13.261719 20.308594 -13.855469 C 20.796875 -14.460938 21.425781 -14.890625 22.195312 -15.148438 C 22.910156 -15.386719 23.617188 -15.433594 24.316406 -15.296875 C 25.089844 -15.140625 25.765625 -14.777344 26.335938 -14.207031 L 26.433594 -14.109375 L 26.523438 -14 C 26.980469 -13.453125 27.496094 -12.515625 28.074219 -11.191406 C 28.550781 -10.09375 29.054688 -8.863281 29.585938 -7.492188 C 30.117188 -6.125 30.578125 -4.867188 30.972656 -3.714844 C 31.371094 -2.550781 31.628906 -1.757812 31.75 -1.328125 L 31.800781 -1.160156 L 31.828125 -0.992188 C 31.765625 -1.371094 31.589844 -1.734375 31.304688 -2.078125 C 30.761719 -2.726562 30.066406 -3.054688 29.222656 -3.054688 L 47.375 -3.054688 C 47.003906 -3.054688 46.640625 -2.964844 46.285156 -2.785156 C 45.789062 -2.539062 45.410156 -2.171875 45.144531 -1.6875 C 44.882812 -1.203125 44.785156 -0.757812 44.859375 -0.347656 L 44.84375 -0.464844 C 44.804688 -0.734375 44.648438 -1.398438 44.378906 -2.457031 C 44.085938 -3.601562 43.726562 -4.9375 43.296875 -6.460938 C 42.875 -7.964844 42.425781 -9.445312 41.953125 -10.894531 C 41.511719 -12.246094 41.078125 -13.339844 40.65625 -14.183594 Z M 22.917969 -29.695312 C 22.96875 -30.757812 22.980469 -31.722656 22.957031 -32.597656 C 22.933594 -33.449219 22.871094 -34.261719 22.777344 -35.03125 C 22.714844 -35.578125 22.640625 -35.980469 22.550781 -36.246094 C 22.542969 -36.277344 22.53125 -36.300781 22.523438 -36.320312 C 22.527344 -36.316406 22.53125 -36.304688 22.539062 -36.289062 C 22.609375 -36.167969 22.714844 -36.046875 22.847656 -35.929688 C 22.863281 -35.917969 22.902344 -35.898438 22.964844 -35.871094 C 23.109375 -35.808594 23.269531 -35.777344 23.445312 -35.777344 C 23.761719 -35.777344 24.046875 -35.867188 24.300781 -36.042969 C 24.476562 -36.167969 24.640625 -36.339844 24.785156 -36.554688 C 25.058594 -36.964844 25.195312 -37.425781 25.195312 -37.933594 L 25.195312 -35.246094 C 25.195312 -34.359375 25.179688 -33.1875 25.152344 -31.730469 C 25.128906 -30.371094 25.140625 -29.269531 25.1875 -28.425781 L 25.195312 -28.335938 L 25.195312 -28.246094 C 25.195312 -28.089844 25.222656 -27.875 25.285156 -27.605469 C 25.167969 -28.125 24.890625 -28.539062 24.445312 -28.859375 C 24.179688 -29.046875 23.929688 -29.152344 23.699219 -29.171875 L 23.445312 -26.128906 L 23.445312 -29.183594 C 23.246094 -29.183594 23.066406 -29.144531 22.910156 -29.066406 C 22.875 -29.050781 22.847656 -29.035156 22.824219 -29.019531 C 22.835938 -29.027344 22.851562 -29.039062 22.871094 -29.0625 C 22.820312 -29.007812 22.78125 -28.960938 22.753906 -28.914062 L 22.75 -28.910156 C 22.757812 -28.925781 22.765625 -28.945312 22.773438 -28.96875 C 22.84375 -29.167969 22.894531 -29.449219 22.925781 -29.8125 L 25.96875 -29.550781 Z M 29.015625 -29.402344 L 29.015625 -29.34375 L 29.007812 -29.285156 C 28.835938 -27.296875 28.230469 -25.785156 27.191406 -24.746094 C 26.078125 -23.632812 24.828125 -23.078125 23.445312 -23.078125 L 23.316406 -23.078125 L 23.191406 -23.089844 C 22.308594 -23.160156 21.542969 -23.429688 20.894531 -23.890625 C 20.070312 -24.480469 19.546875 -25.277344 19.324219 -26.28125 C 19.167969 -26.988281 19.089844 -27.644531 19.089844 -28.246094 L 22.140625 -28.246094 L 19.09375 -28.066406 C 19.035156 -29.070312 19.019531 -30.328125 19.046875 -31.84375 C 19.074219 -33.265625 19.089844 -34.398438 19.089844 -35.246094 L 19.089844 -37.933594 C 19.089844 -38.660156 19.292969 -39.328125 19.703125 -39.941406 C 19.984375 -40.363281 20.347656 -40.730469 20.796875 -41.046875 C 21.59375 -41.601562 22.476562 -41.882812 23.445312 -41.882812 C 24.703125 -41.882812 25.851562 -41.421875 26.886719 -40.507812 C 27.9375 -39.582031 28.585938 -38.007812 28.832031 -35.789062 C 28.953125 -34.824219 29.03125 -33.816406 29.058594 -32.769531 C 29.089844 -31.742188 29.074219 -30.621094 29.015625 -29.402344 Z M 29.015625 -29.402344 "/></g></g></g></g><g fill="#ffffff" fill-opacity="1"><g transform="translate(1.693626, 65.380483)"><g><path d="M 43.390625 -15.546875 C 43.878906 -14.566406 44.367188 -13.332031 44.859375 -11.84375 C 45.347656 -10.351562 45.804688 -8.832031 46.234375 -7.28125 C 46.671875 -5.738281 47.035156 -4.382812 47.328125 -3.21875 C 47.628906 -2.050781 47.804688 -1.273438 47.859375 -0.890625 C 47.972656 -0.296875 47.8125 0 47.375 0 L 29.21875 0 C 29.007812 0 28.875 -0.160156 28.8125 -0.484375 C 28.707031 -0.867188 28.460938 -1.613281 28.078125 -2.71875 C 27.703125 -3.832031 27.253906 -5.054688 26.734375 -6.390625 C 26.222656 -7.722656 25.734375 -8.914062 25.265625 -9.96875 C 24.804688 -11.03125 24.441406 -11.722656 24.171875 -12.046875 C 23.898438 -12.316406 23.5625 -12.382812 23.15625 -12.25 C 22.75 -12.113281 22.519531 -11.828125 22.46875 -11.390625 C 22.363281 -9.710938 22.296875 -7.960938 22.265625 -6.140625 C 22.234375 -4.328125 22.25 -2.550781 22.3125 -0.8125 C 22.363281 -0.269531 22.195312 0 21.8125 0 L 2.765625 0 C 2.441406 0 2.28125 -0.242188 2.28125 -0.734375 L 2.28125 -7.65625 C 2.28125 -7.925781 2.289062 -8.628906 2.3125 -9.765625 C 2.34375 -10.910156 2.359375 -12.269531 2.359375 -13.84375 C 2.359375 -15.414062 2.359375 -16.988281 2.359375 -18.5625 C 2.359375 -20.132812 2.34375 -21.488281 2.3125 -22.625 C 2.289062 -23.769531 2.28125 -24.476562 2.28125 -24.75 L 2.28125 -34.84375 C 2.332031 -37.445312 2.382812 -40.09375 2.4375 -42.78125 C 2.5 -45.46875 2.5 -48.140625 2.4375 -50.796875 C 2.4375 -51.066406 2.519531 -51.203125 2.6875 -51.203125 L 37.203125 -51.203125 C 38.128906 -51.203125 39.066406 -50.972656 40.015625 -50.515625 C 40.960938 -50.054688 41.867188 -49.472656 42.734375 -48.765625 C 43.660156 -47.953125 44.4375 -47.03125 45.0625 -46 C 45.6875 -44.96875 46.132812 -44.179688 46.40625 -43.640625 C 47.101562 -42.003906 47.535156 -40.34375 47.703125 -38.65625 C 47.867188 -36.976562 47.953125 -35.054688 47.953125 -32.890625 C 47.953125 -31.421875 47.816406 -29.75 47.546875 -27.875 C 47.273438 -26.007812 46.921875 -24.585938 46.484375 -23.609375 C 46.210938 -22.953125 45.832031 -22.21875 45.34375 -21.40625 C 44.851562 -20.59375 44.414062 -19.882812 44.03125 -19.28125 C 43.65625 -18.6875 43.441406 -18.363281 43.390625 -18.3125 C 43.390625 -18.3125 43.363281 -18.3125 43.3125 -18.3125 C 42.925781 -17.9375 42.773438 -17.515625 42.859375 -17.046875 C 42.941406 -16.585938 43.117188 -16.085938 43.390625 -15.546875 Z M 25.96875 -29.546875 C 26.019531 -30.691406 26.03125 -31.738281 26 -32.6875 C 25.976562 -33.632812 25.914062 -34.539062 25.8125 -35.40625 C 25.644531 -36.875 25.328125 -37.8125 24.859375 -38.21875 C 24.398438 -38.625 23.925781 -38.828125 23.4375 -38.828125 C 23.113281 -38.828125 22.816406 -38.734375 22.546875 -38.546875 C 22.273438 -38.359375 22.140625 -38.15625 22.140625 -37.9375 C 22.140625 -37.613281 22.140625 -37.207031 22.140625 -36.71875 C 22.140625 -36.226562 22.140625 -35.738281 22.140625 -35.25 C 22.140625 -34.382812 22.125 -33.226562 22.09375 -31.78125 C 22.070312 -30.34375 22.085938 -29.164062 22.140625 -28.25 C 22.140625 -27.863281 22.191406 -27.425781 22.296875 -26.9375 C 22.410156 -26.457031 22.789062 -26.1875 23.4375 -26.125 C 23.988281 -26.125 24.519531 -26.378906 25.03125 -26.890625 C 25.550781 -27.410156 25.863281 -28.296875 25.96875 -29.546875 Z M 25.96875 -29.546875 "/></g></g></g></g></g><g fill="#222222" fill-opacity="1"><g transform="translate(129.636646, 237.011336)"><g><path d="M 6.390625 0.164062 L 4.886719 0.164062 L 4.351562 -1.484375 L 4.503906 -1.535156 L 4.503906 -1.371094 L 1.953125 -1.371094 L 1.953125 -1.535156 L 2.109375 -1.484375 L 1.570312 0.164062 L -0.128906 0.164062 L 2.285156 -6.824219 L 4.207031 -6.824219 L 6.621094 0.164062 Z M 6.390625 -0.164062 L 6.390625 0 L 6.238281 0.0546875 L 3.9375 -6.605469 L 4.089844 -6.660156 L 4.089844 -6.496094 L 2.402344 -6.496094 L 2.402344 -6.660156 L 2.554688 -6.605469 L 0.253906 0.0546875 L 0.101562 0 L 0.101562 -0.164062 L 1.453125 -0.164062 L 1.453125 0 L 1.296875 -0.0507812 L 1.835938 -1.699219 L 4.625 -1.699219 L 5.160156 -0.0507812 L 5.007812 0 L 5.007812 -0.164062 Z M 3.320312 -5.21875 L 2.464844 -2.589844 L 2.308594 -2.640625 L 2.308594 -2.804688 L 4.140625 -2.804688 L 4.140625 -2.640625 L 3.984375 -2.589844 L 3.125 -5.21875 L 3.28125 -5.269531 L 3.28125 -5.109375 L 3.167969 -5.109375 L 3.167969 -5.269531 Z M 3.046875 -5.433594 L 3.398438 -5.433594 L 4.367188 -2.480469 L 2.085938 -2.480469 L 3.011719 -5.320312 Z M 3.046875 -5.433594 "/></g></g></g><g fill="#222222" fill-opacity="1"><g transform="translate(140.747588, 237.011336)"><g><path d="M 3.53125 0.257812 C 2.570312 0.257812 1.851562 0.0273438 1.375 -0.441406 C 0.898438 -0.910156 0.660156 -1.59375 0.660156 -2.496094 L 0.660156 -6.824219 L 2.277344 -6.824219 L 2.277344 -2.503906 C 2.277344 -2.0625 2.378906 -1.738281 2.582031 -1.527344 C 2.785156 -1.316406 3.101562 -1.210938 3.53125 -1.210938 C 3.957031 -1.210938 4.273438 -1.316406 4.476562 -1.527344 C 4.679688 -1.738281 4.785156 -2.0625 4.785156 -2.503906 L 4.785156 -6.824219 L 6.398438 -6.824219 L 6.398438 -2.496094 C 6.398438 -1.59375 6.160156 -0.910156 5.6875 -0.441406 C 5.210938 0.0273438 4.492188 0.257812 3.53125 0.257812 Z M 3.53125 -0.0664062 C 4.402344 -0.0664062 5.046875 -0.269531 5.457031 -0.675781 C 5.867188 -1.078125 6.074219 -1.6875 6.074219 -2.496094 L 6.074219 -6.660156 L 6.238281 -6.660156 L 6.238281 -6.496094 L 4.949219 -6.496094 L 4.949219 -6.660156 L 5.109375 -6.660156 L 5.109375 -2.503906 C 5.109375 -1.976562 4.976562 -1.574219 4.710938 -1.296875 C 4.441406 -1.023438 4.050781 -0.882812 3.53125 -0.882812 C 3.007812 -0.882812 2.613281 -1.023438 2.347656 -1.300781 C 2.082031 -1.574219 1.949219 -1.976562 1.949219 -2.503906 L 1.949219 -6.660156 L 2.113281 -6.660156 L 2.113281 -6.496094 L 0.824219 -6.496094 L 0.824219 -6.660156 L 0.988281 -6.660156 L 0.988281 -2.496094 C 0.988281 -1.6875 1.191406 -1.078125 1.605469 -0.675781 C 2.015625 -0.269531 2.65625 -0.0664062 3.53125 -0.0664062 Z M 3.53125 -0.0664062 "/></g></g></g><g fill="#222222" fill-opacity="1"><g transform="translate(152.427874, 237.011336)"><g><path d="M 5.503906 -6.660156 L 5.503906 -5.390625 L 3.417969 -5.390625 L 3.417969 -5.554688 L 3.582031 -5.554688 L 3.582031 0.164062 L 1.941406 0.164062 L 1.941406 -5.554688 L 2.105469 -5.554688 L 2.105469 -5.390625 L 0.0195312 -5.390625 L 0.0195312 -6.824219 L 5.503906 -6.824219 Z M 5.175781 -6.660156 L 5.339844 -6.660156 L 5.339844 -6.496094 L 0.183594 -6.496094 L 0.183594 -6.660156 L 0.34375 -6.660156 L 0.34375 -5.554688 L 0.183594 -5.554688 L 0.183594 -5.714844 L 2.269531 -5.714844 L 2.269531 0 L 2.105469 0 L 2.105469 -0.164062 L 3.417969 -0.164062 L 3.417969 0 L 3.253906 0 L 3.253906 -5.714844 L 5.339844 -5.714844 L 5.339844 -5.554688 L 5.175781 -5.554688 Z M 5.175781 -6.660156 "/></g></g></g><g fill="#222222" fill-opacity="1"><g transform="translate(162.568655, 237.011336)"><g><path d="M 3.632812 0.257812 C 2.992188 0.257812 2.429688 0.128906 1.9375 -0.132812 C 1.441406 -0.398438 1.054688 -0.800781 0.773438 -1.34375 C 0.5 -1.878906 0.359375 -2.542969 0.359375 -3.332031 C 0.359375 -4.117188 0.5 -4.78125 0.773438 -5.316406 C 1.054688 -5.859375 1.441406 -6.261719 1.9375 -6.527344 C 2.429688 -6.789062 2.992188 -6.917969 3.632812 -6.917969 C 4.269531 -6.917969 4.832031 -6.789062 5.320312 -6.527344 C 5.816406 -6.265625 6.203125 -5.863281 6.480469 -5.316406 C 6.753906 -4.78125 6.890625 -4.117188 6.890625 -3.332031 C 6.890625 -2.542969 6.753906 -1.878906 6.480469 -1.34375 C 6.203125 -0.796875 5.816406 -0.394531 5.320312 -0.132812 C 4.832031 0.128906 4.269531 0.257812 3.632812 0.257812 Z M 3.632812 -0.0664062 C 4.214844 -0.0664062 4.726562 -0.183594 5.167969 -0.417969 C 5.601562 -0.652344 5.941406 -1.007812 6.1875 -1.492188 C 6.441406 -1.980469 6.566406 -2.59375 6.566406 -3.332031 C 6.566406 -4.066406 6.441406 -4.679688 6.1875 -5.167969 C 5.941406 -5.652344 5.601562 -6.007812 5.167969 -6.242188 C 4.726562 -6.476562 4.214844 -6.59375 3.632812 -6.59375 C 3.046875 -6.59375 2.535156 -6.472656 2.09375 -6.238281 C 1.65625 -6.003906 1.3125 -5.648438 1.066406 -5.167969 C 0.8125 -4.679688 0.6875 -4.066406 0.6875 -3.332031 C 0.6875 -2.59375 0.8125 -1.980469 1.066406 -1.492188 C 1.3125 -1.011719 1.65625 -0.65625 2.09375 -0.421875 C 2.535156 -0.1875 3.046875 -0.0664062 3.632812 -0.0664062 Z M 3.632812 -1.210938 C 4.144531 -1.210938 4.535156 -1.371094 4.796875 -1.695312 C 5.070312 -2.027344 5.207031 -2.574219 5.207031 -3.332031 C 5.207031 -4.085938 5.070312 -4.632812 4.796875 -4.96875 C 4.53125 -5.292969 4.144531 -5.453125 3.632812 -5.453125 C 3.113281 -5.453125 2.722656 -5.292969 2.457031 -4.96875 C 2.183594 -4.632812 2.042969 -4.085938 2.042969 -3.332031 C 2.042969 -2.574219 2.183594 -2.027344 2.457031 -1.695312 C 2.722656 -1.371094 3.113281 -1.210938 3.632812 -1.210938 Z M 3.632812 -0.882812 C 3.011719 -0.882812 2.535156 -1.085938 2.203125 -1.488281 C 1.878906 -1.882812 1.71875 -2.496094 1.71875 -3.332031 C 1.71875 -4.164062 1.878906 -4.78125 2.203125 -5.175781 C 2.535156 -5.578125 3.011719 -5.78125 3.632812 -5.78125 C 4.246094 -5.78125 4.722656 -5.578125 5.050781 -5.171875 C 5.375 -4.777344 5.535156 -4.164062 5.535156 -3.332031 C 5.535156 -2.496094 5.375 -1.882812 5.050781 -1.488281 C 4.71875 -1.085938 4.246094 -0.882812 3.632812 -0.882812 Z M 3.632812 -0.882812 "/></g></g></g><g fill="#222222" fill-opacity="1"><g transform="translate(174.444794, 237.011336)"><g><path d="M 2.074219 0.164062 L 0.703125 0.164062 L 0.703125 -6.824219 L 2.703125 -6.824219 L 4.425781 -1.816406 L 4.273438 -1.761719 L 4.273438 -1.925781 L 4.367188 -1.925781 L 4.367188 -1.761719 L 4.214844 -1.816406 L 5.929688 -6.824219 L 7.890625 -6.824219 L 7.890625 0.164062 L 6.316406 0.164062 L 6.316406 -4.402344 L 6.476562 -4.402344 L 6.453125 -4.238281 L 6.339844 -4.257812 L 6.363281 -4.417969 L 6.519531 -4.367188 L 4.941406 0.164062 L 3.609375 0.164062 L 2.03125 -4.367188 L 2.1875 -4.417969 L 2.210938 -4.257812 L 2.097656 -4.238281 L 2.074219 -4.402344 L 2.234375 -4.402344 L 2.234375 0.164062 Z M 2.074219 -0.164062 L 2.074219 0 L 1.910156 0 L 1.910156 -4.539062 L 2.296875 -4.601562 L 3.878906 -0.0546875 L 3.726562 0 L 3.726562 -0.164062 L 4.824219 -0.164062 L 4.824219 0 L 4.671875 -0.0546875 L 6.253906 -4.601562 L 6.640625 -4.539062 L 6.640625 0 L 6.476562 0 L 6.476562 -0.164062 L 7.726562 -0.164062 L 7.726562 0 L 7.5625 0 L 7.5625 -6.660156 L 7.726562 -6.660156 L 7.726562 -6.496094 L 6.046875 -6.496094 L 6.046875 -6.660156 L 6.199219 -6.609375 L 4.484375 -1.601562 L 4.15625 -1.601562 L 2.433594 -6.605469 L 2.585938 -6.660156 L 2.585938 -6.496094 L 0.867188 -6.496094 L 0.867188 -6.660156 L 1.027344 -6.660156 L 1.027344 0 L 0.867188 0 L 0.867188 -0.164062 Z M 2.074219 -0.164062 "/></g></g></g><g fill="#222222" fill-opacity="1"><g transform="translate(187.660031, 237.011336)"><g><path d="M 6.390625 0.164062 L 4.886719 0.164062 L 4.351562 -1.484375 L 4.503906 -1.535156 L 4.503906 -1.371094 L 1.953125 -1.371094 L 1.953125 -1.535156 L 2.109375 -1.484375 L 1.570312 0.164062 L -0.128906 0.164062 L 2.285156 -6.824219 L 4.207031 -6.824219 L 6.621094 0.164062 Z M 6.390625 -0.164062 L 6.390625 0 L 6.238281 0.0546875 L 3.9375 -6.605469 L 4.089844 -6.660156 L 4.089844 -6.496094 L 2.402344 -6.496094 L 2.402344 -6.660156 L 2.554688 -6.605469 L 0.253906 0.0546875 L 0.101562 0 L 0.101562 -0.164062 L 1.453125 -0.164062 L 1.453125 0 L 1.296875 -0.0507812 L 1.835938 -1.699219 L 4.625 -1.699219 L 5.160156 -0.0507812 L 5.007812 0 L 5.007812 -0.164062 Z M 3.320312 -5.21875 L 2.464844 -2.589844 L 2.308594 -2.640625 L 2.308594 -2.804688 L 4.140625 -2.804688 L 4.140625 -2.640625 L 3.984375 -2.589844 L 3.125 -5.21875 L 3.28125 -5.269531 L 3.28125 -5.109375 L 3.167969 -5.109375 L 3.167969 -5.269531 Z M 3.046875 -5.433594 L 3.398438 -5.433594 L 4.367188 -2.480469 L 2.085938 -2.480469 L 3.011719 -5.320312 Z M 3.046875 -5.433594 "/></g></g></g><g fill="#222222" fill-opacity="1"><g transform="translate(198.770973, 237.011336)"><g><path d="M 5.503906 -6.660156 L 5.503906 -5.390625 L 3.417969 -5.390625 L 3.417969 -5.554688 L 3.582031 -5.554688 L 3.582031 0.164062 L 1.941406 0.164062 L 1.941406 -5.554688 L 2.105469 -5.554688 L 2.105469 -5.390625 L 0.0195312 -5.390625 L 0.0195312 -6.824219 L 5.503906 -6.824219 Z M 5.175781 -6.660156 L 5.339844 -6.660156 L 5.339844 -6.496094 L 0.183594 -6.496094 L 0.183594 -6.660156 L 0.34375 -6.660156 L 0.34375 -5.554688 L 0.183594 -5.554688 L 0.183594 -5.714844 L 2.269531 -5.714844 L 2.269531 0 L 2.105469 0 L 2.105469 -0.164062 L 3.417969 -0.164062 L 3.417969 0 L 3.253906 0 L 3.253906 -5.714844 L 5.339844 -5.714844 L 5.339844 -5.554688 L 5.175781 -5.554688 Z M 5.175781 -6.660156 "/></g></g></g><g fill="#222222" fill-opacity="1"><g transform="translate(208.911753, 237.011336)"><g><path d="M 0.703125 -6.824219 L 2.34375 -6.824219 L 2.34375 0.164062 L 0.703125 0.164062 Z M 1.027344 -6.496094 L 1.027344 -0.164062 L 2.019531 -0.164062 L 2.019531 -6.496094 Z M 1.027344 -6.496094 "/></g></g></g><g fill="#222222" fill-opacity="1"><g transform="translate(216.583861, 237.011336)"><g><path d="M 3.632812 0.257812 C 2.992188 0.257812 2.429688 0.128906 1.9375 -0.132812 C 1.441406 -0.398438 1.054688 -0.800781 0.773438 -1.34375 C 0.5 -1.878906 0.359375 -2.542969 0.359375 -3.332031 C 0.359375 -4.117188 0.5 -4.78125 0.773438 -5.316406 C 1.054688 -5.859375 1.441406 -6.261719 1.9375 -6.527344 C 2.429688 -6.789062 2.992188 -6.917969 3.632812 -6.917969 C 4.269531 -6.917969 4.832031 -6.789062 5.320312 -6.527344 C 5.816406 -6.265625 6.203125 -5.863281 6.480469 -5.316406 C 6.753906 -4.78125 6.890625 -4.117188 6.890625 -3.332031 C 6.890625 -2.542969 6.753906 -1.878906 6.480469 -1.34375 C 6.203125 -0.796875 5.816406 -0.394531 5.320312 -0.132812 C 4.832031 0.128906 4.269531 0.257812 3.632812 0.257812 Z M 3.632812 -0.0664062 C 4.214844 -0.0664062 4.726562 -0.183594 5.167969 -0.417969 C 5.601562 -0.652344 5.941406 -1.007812 6.1875 -1.492188 C 6.441406 -1.980469 6.566406 -2.59375 6.566406 -3.332031 C 6.566406 -4.066406 6.441406 -4.679688 6.1875 -5.167969 C 5.941406 -5.652344 5.601562 -6.007812 5.167969 -6.242188 C 4.726562 -6.476562 4.214844 -6.59375 3.632812 -6.59375 C 3.046875 -6.59375 2.535156 -6.472656 2.09375 -6.238281 C 1.65625 -6.003906 1.3125 -5.648438 1.066406 -5.167969 C 0.8125 -4.679688 0.6875 -4.066406 0.6875 -3.332031 C 0.6875 -2.59375 0.8125 -1.980469 1.066406 -1.492188 C 1.3125 -1.011719 1.65625 -0.65625 2.09375 -0.421875 C 2.535156 -0.1875 3.046875 -0.0664062 3.632812 -0.0664062 Z M 3.632812 -1.210938 C 4.144531 -1.210938 4.535156 -1.371094 4.796875 -1.695312 C 5.070312 -2.027344 5.207031 -2.574219 5.207031 -3.332031 C 5.207031 -4.085938 5.070312 -4.632812 4.796875 -4.96875 C 4.53125 -5.292969 4.144531 -5.453125 3.632812 -5.453125 C 3.113281 -5.453125 2.722656 -5.292969 2.457031 -4.96875 C 2.183594 -4.632812 2.042969 -4.085938 2.042969 -3.332031 C 2.042969 -2.574219 2.183594 -2.027344 2.457031 -1.695312 C 2.722656 -1.371094 3.113281 -1.210938 3.632812 -1.210938 Z M 3.632812 -0.882812 C 3.011719 -0.882812 2.535156 -1.085938 2.203125 -1.488281 C 1.878906 -1.882812 1.71875 -2.496094 1.71875 -3.332031 C 1.71875 -4.164062 1.878906 -4.78125 2.203125 -5.175781 C 2.535156 -5.578125 3.011719 -5.78125 3.632812 -5.78125 C 4.246094 -5.78125 4.722656 -5.578125 5.050781 -5.171875 C 5.375 -4.777344 5.535156 -4.164062 5.535156 -3.332031 C 5.535156 -2.496094 5.375 -1.882812 5.050781 -1.488281 C 4.71875 -1.085938 4.246094 -0.882812 3.632812 -0.882812 Z M 3.632812 -0.882812 "/></g></g></g><g fill="#222222" fill-opacity="1"><g transform="translate(228.46, 237.011336)"><g><path d="M 2.140625 0.164062 L 0.703125 0.164062 L 0.703125 -6.824219 L 2.464844 -6.824219 L 5.1875 -2.457031 L 5.046875 -2.367188 L 5.023438 -2.53125 L 5.140625 -2.546875 L 5.167969 -2.386719 L 5.003906 -2.386719 L 5.003906 -6.824219 L 6.597656 -6.824219 L 6.597656 0.164062 L 4.992188 0.164062 L 2.117188 -4.496094 L 2.253906 -4.582031 L 2.28125 -4.421875 L 2.167969 -4.402344 L 2.140625 -4.566406 L 2.304688 -4.566406 L 2.304688 0.164062 Z M 2.140625 -0.164062 L 2.140625 0 L 1.976562 0 L 1.976562 -4.703125 L 2.335938 -4.761719 L 5.222656 -0.0859375 L 5.085938 0 L 5.085938 -0.164062 L 6.433594 -0.164062 L 6.433594 0 L 6.269531 0 L 6.269531 -6.660156 L 6.433594 -6.660156 L 6.433594 -6.496094 L 5.167969 -6.496094 L 5.167969 -6.660156 L 5.328125 -6.660156 L 5.328125 -2.246094 L 4.964844 -2.191406 L 2.234375 -6.574219 L 2.375 -6.660156 L 2.375 -6.496094 L 0.867188 -6.496094 L 0.867188 -6.660156 L 1.027344 -6.660156 L 1.027344 0 L 0.867188 0 L 0.867188 -0.164062 Z M 2.140625 -0.164062 "/></g></g></g><g fill="#ffffff" fill-opacity="1"><g transform="translate(129.636646, 237.011336)"><g><path d="M 6.390625 0 L 5 0 L 4.5 -1.53125 L 1.953125 -1.53125 L 1.453125 0 L 0.09375 0 L 2.40625 -6.65625 L 4.09375 -6.65625 Z M 3.171875 -5.265625 L 2.3125 -2.640625 L 4.140625 -2.640625 L 3.28125 -5.265625 Z M 3.171875 -5.265625 "/></g></g></g><g fill="#ffffff" fill-opacity="1"><g transform="translate(140.747588, 237.011336)"><g><path d="M 3.53125 0.09375 C 2.613281 0.09375 1.929688 -0.125 1.484375 -0.5625 C 1.046875 -1 0.828125 -1.644531 0.828125 -2.5 L 0.828125 -6.65625 L 2.109375 -6.65625 L 2.109375 -2.5 C 2.109375 -2.019531 2.222656 -1.65625 2.453125 -1.40625 C 2.691406 -1.164062 3.050781 -1.046875 3.53125 -1.046875 C 4.476562 -1.046875 4.953125 -1.53125 4.953125 -2.5 L 4.953125 -6.65625 L 6.234375 -6.65625 L 6.234375 -2.5 C 6.234375 -1.644531 6.007812 -1 5.5625 -0.5625 C 5.125 -0.125 4.445312 0.09375 3.53125 0.09375 Z M 3.53125 0.09375 "/></g></g></g><g fill="#ffffff" fill-opacity="1"><g transform="translate(152.427874, 237.011336)"><g><path d="M 5.34375 -6.65625 L 5.34375 -5.546875 L 3.421875 -5.546875 L 3.421875 0 L 2.109375 0 L 2.109375 -5.546875 L 0.1875 -5.546875 L 0.1875 -6.65625 Z M 5.34375 -6.65625 "/></g></g></g><g fill="#ffffff" fill-opacity="1"><g transform="translate(162.568655, 237.011336)"><g><path d="M 3.625 0.09375 C 3.019531 0.09375 2.484375 -0.03125 2.015625 -0.28125 C 1.546875 -0.53125 1.179688 -0.910156 0.921875 -1.421875 C 0.660156 -1.929688 0.53125 -2.566406 0.53125 -3.328125 C 0.53125 -4.085938 0.660156 -4.722656 0.921875 -5.234375 C 1.179688 -5.742188 1.546875 -6.125 2.015625 -6.375 C 2.484375 -6.625 3.019531 -6.75 3.625 -6.75 C 4.238281 -6.75 4.773438 -6.625 5.234375 -6.375 C 5.703125 -6.132812 6.066406 -5.753906 6.328125 -5.234375 C 6.597656 -4.722656 6.734375 -4.085938 6.734375 -3.328125 C 6.734375 -2.566406 6.597656 -1.925781 6.328125 -1.40625 C 6.066406 -0.894531 5.703125 -0.515625 5.234375 -0.265625 C 4.773438 -0.0234375 4.238281 0.09375 3.625 0.09375 Z M 3.625 -1.046875 C 4.195312 -1.046875 4.628906 -1.226562 4.921875 -1.59375 C 5.222656 -1.957031 5.375 -2.535156 5.375 -3.328125 C 5.375 -4.117188 5.222656 -4.695312 4.921875 -5.0625 C 4.628906 -5.425781 4.195312 -5.609375 3.625 -5.609375 C 3.0625 -5.609375 2.628906 -5.425781 2.328125 -5.0625 C 2.023438 -4.695312 1.875 -4.117188 1.875 -3.328125 C 1.875 -2.535156 2.023438 -1.957031 2.328125 -1.59375 C 2.628906 -1.226562 3.0625 -1.046875 3.625 -1.046875 Z M 3.625 -1.046875 "/></g></g></g><g fill="#ffffff" fill-opacity="1"><g transform="translate(174.444794, 237.011336)"><g><path d="M 2.078125 0 L 0.859375 0 L 0.859375 -6.65625 L 2.59375 -6.65625 L 4.265625 -1.765625 L 4.375 -1.765625 L 6.046875 -6.65625 L 7.71875 -6.65625 L 7.71875 0 L 6.484375 0 L 6.484375 -4.40625 L 6.359375 -4.421875 L 4.828125 0 L 3.71875 0 L 2.1875 -4.421875 L 2.078125 -4.40625 Z M 2.078125 0 "/></g></g></g><g fill="#ffffff" fill-opacity="1"><g transform="translate(187.660031, 237.011336)"><g><path d="M 6.390625 0 L 5 0 L 4.5 -1.53125 L 1.953125 -1.53125 L 1.453125 0 L 0.09375 0 L 2.40625 -6.65625 L 4.09375 -6.65625 Z M 3.171875 -5.265625 L 2.3125 -2.640625 L 4.140625 -2.640625 L 3.28125 -5.265625 Z M 3.171875 -5.265625 "/></g></g></g><g fill="#ffffff" fill-opacity="1"><g transform="translate(198.770973, 237.011336)"><g><path d="M 5.34375 -6.65625 L 5.34375 -5.546875 L 3.421875 -5.546875 L 3.421875 0 L 2.109375 0 L 2.109375 -5.546875 L 0.1875 -5.546875 L 0.1875 -6.65625 Z M 5.34375 -6.65625 "/></g></g></g><g fill="#ffffff" fill-opacity="1"><g transform="translate(208.911753, 237.011336)"><g><path d="M 2.1875 0 L 0.859375 0 L 0.859375 -6.65625 L 2.1875 -6.65625 Z M 2.1875 0 "/></g></g></g><g fill="#ffffff" fill-opacity="1"><g transform="translate(216.583861, 237.011336)"><g><path d="M 3.625 0.09375 C 3.019531 0.09375 2.484375 -0.03125 2.015625 -0.28125 C 1.546875 -0.53125 1.179688 -0.910156 0.921875 -1.421875 C 0.660156 -1.929688 0.53125 -2.566406 0.53125 -3.328125 C 0.53125 -4.085938 0.660156 -4.722656 0.921875 -5.234375 C 1.179688 -5.742188 1.546875 -6.125 2.015625 -6.375 C 2.484375 -6.625 3.019531 -6.75 3.625 -6.75 C 4.238281 -6.75 4.773438 -6.625 5.234375 -6.375 C 5.703125 -6.132812 6.066406 -5.753906 6.328125 -5.234375 C 6.597656 -4.722656 6.734375 -4.085938 6.734375 -3.328125 C 6.734375 -2.566406 6.597656 -1.925781 6.328125 -1.40625 C 6.066406 -0.894531 5.703125 -0.515625 5.234375 -0.265625 C 4.773438 -0.0234375 4.238281 0.09375 3.625 0.09375 Z M 3.625 -1.046875 C 4.195312 -1.046875 4.628906 -1.226562 4.921875 -1.59375 C 5.222656 -1.957031 5.375 -2.535156 5.375 -3.328125 C 5.375 -4.117188 5.222656 -4.695312 4.921875 -5.0625 C 4.628906 -5.425781 4.195312 -5.609375 3.625 -5.609375 C 3.0625 -5.609375 2.628906 -5.425781 2.328125 -5.0625 C 2.023438 -4.695312 1.875 -4.117188 1.875 -3.328125 C 1.875 -2.535156 2.023438 -1.957031 2.328125 -1.59375 C 2.628906 -1.226562 3.0625 -1.046875 3.625 -1.046875 Z M 3.625 -1.046875 "/></g></g></g><g fill="#ffffff" fill-opacity="1"><g transform="translate(228.46, 237.011336)"><g><path d="M 2.140625 0 L 0.859375 0 L 0.859375 -6.65625 L 2.375 -6.65625 L 5.046875 -2.375 L 5.171875 -2.390625 L 5.171875 -6.65625 L 6.4375 -6.65625 L 6.4375 0 L 5.078125 0 L 2.25 -4.578125 L 2.140625 -4.5625 Z M 2.140625 0 "/></g></g></g></svg>